<svg id="svg" version="1.1" xmlns="http://www.w3.org/2000/svg" xmlns:xlink="http://www.w3.org/1999/xlink" width="400" height="396" viewBox="0, 0, 400,396"><g id="svgg"><path id="path0" d="M193.861 12.295 C 191.030 12.487,188.356 12.803,187.921 12.997 C 187.485 13.191,186.817 13.302,186.436 13.245 C 186.054 13.187,185.743 13.270,185.743 13.429 C 185.743 13.588,184.317 13.950,182.574 14.233 C 180.832 14.516,179.406 14.877,179.406 15.035 C 179.406 15.193,177.891 15.640,176.040 16.028 C 174.188 16.417,172.673 16.881,172.673 17.060 C 172.673 17.238,171.604 17.685,170.297 18.051 C 168.990 18.418,167.921 18.849,167.921 19.008 C 167.921 19.167,166.896 19.617,165.644 20.007 C 164.391 20.397,163.277 20.835,163.168 20.979 C 163.059 21.124,161.589 21.920,159.901 22.748 C 158.213 23.576,156.831 24.365,156.830 24.503 C 156.829 24.640,156.027 25.082,155.048 25.485 C 154.069 25.888,153.267 26.343,153.267 26.498 C 153.267 26.652,152.510 27.109,151.584 27.512 C 150.658 27.916,149.812 28.371,149.703 28.523 C 149.594 28.676,148.926 29.097,148.218 29.460 C 147.510 29.823,146.931 30.249,146.931 30.409 C 146.931 30.568,146.351 30.951,145.644 31.261 C 144.936 31.570,144.124 32.149,143.839 32.546 C 143.554 32.943,143.066 33.267,142.753 33.267 C 142.441 33.267,141.962 33.624,141.690 34.059 C 141.418 34.495,140.973 34.851,140.700 34.851 C 140.428 34.851,139.982 35.208,139.710 35.644 C 139.438 36.079,139.016 36.436,138.772 36.436 C 138.528 36.436,137.725 37.058,136.986 37.818 C 136.248 38.578,135.494 39.201,135.311 39.204 C 134.730 39.211,126.048 48.409,124.466 50.693 C 123.723 51.765,122.834 52.883,122.131 53.628 C 121.887 53.887,121.392 54.669,121.031 55.366 C 120.671 56.063,120.244 56.634,120.083 56.634 C 119.922 56.634,119.482 57.347,119.105 58.218 C 118.727 59.089,118.254 59.802,118.053 59.802 C 117.852 59.802,117.391 60.693,117.030 61.782 C 116.668 62.871,116.204 63.762,115.998 63.762 C 115.792 63.762,115.451 64.218,115.239 64.776 C 115.027 65.333,114.407 66.764,113.862 67.956 C 113.317 69.148,112.871 70.295,112.871 70.507 C 112.871 70.718,112.733 70.891,112.563 70.891 C 112.259 70.891,110.891 75.038,110.891 75.960 C 110.891 76.222,110.731 76.436,110.535 76.436 C 110.339 76.436,109.887 77.817,109.531 79.505 C 109.175 81.193,108.725 82.862,108.531 83.214 C 106.584 86.748,106.556 117.763,108.499 119.208 C 108.646 119.317,109.088 120.965,109.483 122.871 C 109.877 124.777,110.322 126.337,110.471 126.337 C 110.620 126.337,110.967 127.217,111.243 128.294 C 111.519 129.370,111.998 130.461,112.308 130.719 C 112.618 130.976,112.871 131.475,112.871 131.827 C 112.871 132.480,115.573 138.253,116.047 138.614 C 116.191 138.723,116.638 139.569,117.042 140.495 C 117.446 141.421,117.912 142.178,118.077 142.178 C 118.243 142.178,118.693 142.841,119.077 143.650 C 119.461 144.460,120.094 145.485,120.482 145.927 C 122.138 147.816,122.376 148.138,122.376 148.486 C 122.376 148.688,122.822 149.204,123.366 149.632 C 123.911 150.061,124.356 150.545,124.356 150.708 C 124.356 151.301,131.642 158.812,132.217 158.812 C 133.049 158.812,133.140 157.909,132.460 156.401 C 132.075 155.549,131.612 154.851,131.430 154.851 C 131.248 154.851,130.823 154.189,130.485 153.380 C 130.147 152.571,129.724 151.814,129.546 151.697 C 129.367 151.581,128.844 150.683,128.383 149.703 C 127.922 148.723,127.366 147.653,127.147 147.327 C 126.494 146.350,124.356 141.543,124.356 141.051 C 124.356 140.800,124.198 140.594,124.004 140.594 C 123.811 140.594,123.339 139.436,122.955 138.020 C 122.572 136.604,122.136 135.446,121.986 135.446 C 121.836 135.446,121.383 133.975,120.979 132.178 C 120.574 130.381,120.109 128.817,119.943 128.702 C 119.778 128.587,119.347 126.270,118.985 123.553 C 118.623 120.837,118.168 118.304,117.975 117.926 C 117.517 117.030,117.517 103.960,117.975 103.064 C 118.168 102.686,118.623 100.154,118.985 97.437 C 119.347 94.720,119.795 92.403,119.981 92.288 C 120.166 92.173,120.539 90.952,120.810 89.575 C 121.081 88.198,121.544 86.829,121.839 86.534 C 122.135 86.239,122.376 85.812,122.376 85.587 C 122.376 84.944,123.626 81.409,123.932 81.188 C 124.299 80.922,127.129 74.968,127.129 74.460 C 127.129 74.240,127.316 74.059,127.545 74.059 C 127.774 74.059,128.222 73.436,128.540 72.673 C 128.859 71.911,129.252 71.287,129.414 71.287 C 129.575 71.287,129.936 70.771,130.215 70.141 C 130.494 69.511,131.117 68.538,131.599 67.978 C 132.081 67.419,132.832 66.496,133.267 65.926 C 134.922 63.763,136.534 61.978,139.469 59.058 C 142.151 56.389,143.532 55.124,147.088 52.079 C 148.188 51.138,149.282 50.392,150.099 50.026 C 150.426 49.880,150.787 49.623,150.902 49.455 C 151.314 48.852,153.888 47.143,155.347 46.505 C 156.163 46.147,156.832 45.710,156.832 45.532 C 156.832 45.355,157.455 45.004,158.218 44.752 C 158.980 44.501,159.604 44.166,159.604 44.008 C 159.604 43.850,160.495 43.400,161.584 43.009 C 162.673 42.617,163.564 42.136,163.564 41.940 C 163.564 41.744,163.814 41.584,164.118 41.584 C 164.423 41.584,165.626 41.082,166.793 40.469 C 167.959 39.855,169.759 39.103,170.793 38.798 C 171.827 38.493,172.673 38.132,172.673 37.996 C 172.673 37.860,173.787 37.418,175.149 37.012 C 176.510 36.607,177.713 36.156,177.822 36.010 C 177.931 35.864,178.993 35.537,180.183 35.284 C 181.373 35.031,182.452 34.653,182.581 34.444 C 182.711 34.235,184.678 33.763,186.953 33.395 C 189.228 33.027,191.179 32.596,191.289 32.438 C 192.111 31.251,216.624 31.268,217.426 32.456 C 217.535 32.617,220.119 33.069,223.168 33.460 C 226.218 33.851,228.802 34.291,228.911 34.438 C 229.990 35.896,254.274 35.945,255.446 34.491 C 255.554 34.356,256.890 33.920,258.414 33.523 C 259.938 33.126,261.275 32.669,261.384 32.507 C 261.494 32.345,262.520 31.880,263.663 31.473 C 264.807 31.067,265.743 30.619,265.743 30.477 C 265.743 30.335,266.500 29.885,267.426 29.477 C 268.351 29.069,269.251 28.508,269.426 28.229 C 269.600 27.951,269.992 27.723,270.296 27.723 C 270.601 27.723,271.331 27.277,271.919 26.733 C 272.506 26.188,273.139 25.743,273.325 25.743 C 273.511 25.743,273.663 25.386,273.663 24.950 C 273.663 24.229,273.399 24.158,270.693 24.158 C 268.977 24.158,267.723 24.326,267.723 24.554 C 267.723 24.804,265.017 24.950,260.396 24.950 C 256.366 24.950,253.069 24.812,253.069 24.642 C 253.069 24.472,251.601 24.102,249.807 23.820 C 248.013 23.538,246.453 23.169,246.342 23.001 C 246.230 22.833,244.847 22.381,243.267 21.998 C 241.688 21.614,240.396 21.168,240.396 21.006 C 240.396 20.844,239.238 20.398,237.822 20.015 C 236.406 19.632,235.248 19.160,235.248 18.966 C 235.248 18.772,235.001 18.614,234.699 18.614 C 233.929 18.614,229.943 17.324,229.703 16.997 C 229.594 16.848,228.124 16.421,226.436 16.046 C 224.748 15.672,223.366 15.231,223.366 15.066 C 223.366 14.901,221.985 14.546,220.297 14.277 C 218.609 14.008,216.960 13.689,216.634 13.567 C 213.441 12.377,202.041 11.740,193.861 12.295 M190.896 50.499 C 188.611 50.805,186.384 51.239,185.945 51.462 C 185.507 51.685,184.265 52.058,183.185 52.291 C 182.104 52.523,180.990 52.905,180.709 53.138 C 180.428 53.371,180.198 53.430,180.198 53.267 C 180.198 53.105,179.975 53.142,179.703 53.350 C 179.431 53.558,178.183 53.965,176.931 54.254 C 175.678 54.543,174.653 54.913,174.653 55.076 C 174.653 55.239,173.673 55.680,172.475 56.057 C 171.277 56.434,170.297 56.857,170.297 56.997 C 170.297 57.138,169.485 57.493,168.493 57.785 C 167.501 58.078,166.476 58.522,166.216 58.770 C 165.955 59.019,164.985 59.558,164.059 59.968 C 163.134 60.379,162.376 60.866,162.376 61.050 C 162.376 61.235,162.141 61.386,161.853 61.386 C 161.565 61.386,160.629 61.916,159.774 62.563 C 158.918 63.211,158.001 63.745,157.737 63.751 C 157.472 63.757,157.065 64.119,156.832 64.554 C 156.599 64.990,156.157 65.347,155.850 65.347 C 155.543 65.347,155.060 65.658,154.775 66.040 C 154.490 66.421,153.754 66.993,153.138 67.311 C 152.522 67.629,151.847 68.208,151.639 68.598 C 151.430 68.988,151.043 69.310,150.778 69.313 C 150.514 69.316,149.139 70.580,147.723 72.120 C 146.307 73.660,144.480 75.611,143.663 76.455 C 142.847 77.298,142.178 78.099,142.178 78.234 C 142.178 78.370,141.554 79.242,140.792 80.172 C 140.030 81.103,139.406 82.068,139.406 82.318 C 139.406 82.568,139.236 82.772,139.028 82.772 C 138.821 82.772,138.338 83.441,137.954 84.257 C 137.571 85.074,137.028 85.978,136.748 86.266 C 136.467 86.554,136.238 87.010,136.238 87.280 C 136.238 87.550,135.925 88.117,135.542 88.539 C 134.743 89.421,131.881 95.887,131.881 96.810 C 131.881 97.149,131.733 97.426,131.551 97.426 C 131.370 97.426,130.885 98.807,130.472 100.495 C 130.060 102.183,129.599 103.656,129.446 103.767 C 129.056 104.053,127.921 111.970,127.921 114.407 C 127.921 115.523,127.743 116.436,127.525 116.436 C 127.285 116.436,127.129 118.152,127.129 120.792 C 127.129 123.432,127.285 125.149,127.525 125.149 C 127.743 125.149,127.921 125.974,127.921 126.982 C 127.921 129.257,129.073 136.690,129.509 137.228 C 129.686 137.446,130.124 138.760,130.484 140.149 C 130.843 141.539,131.365 143.053,131.645 143.516 C 131.924 143.978,132.387 145.114,132.674 146.040 C 132.961 146.965,133.346 147.723,133.529 147.723 C 133.712 147.723,133.861 147.990,133.861 148.317 C 133.861 148.644,134.173 149.224,134.554 149.607 C 134.936 149.990,135.586 151.059,136.001 151.983 C 136.415 152.907,136.893 153.663,137.063 153.663 C 137.233 153.663,137.485 154.020,137.624 154.455 C 138.103 155.965,139.954 155.512,139.644 153.960 C 139.503 153.252,139.231 152.620,139.039 152.554 C 138.847 152.488,138.386 150.706,138.014 148.594 C 137.641 146.481,137.134 144.325,136.886 143.801 C 136.260 142.480,136.265 124.040,136.892 122.733 C 137.143 122.210,137.564 120.446,137.828 118.812 C 138.092 117.178,138.624 115.129,139.010 114.257 C 139.396 113.386,139.841 112.050,139.998 111.287 C 140.155 110.525,140.591 109.366,140.967 108.713 C 141.342 108.059,141.886 106.767,142.175 105.842 C 142.465 104.916,142.816 104.158,142.957 104.158 C 143.099 104.158,143.546 103.405,143.952 102.484 C 144.359 101.564,145.017 100.461,145.415 100.033 C 145.813 99.606,146.139 99.023,146.139 98.737 C 146.139 98.452,146.308 98.218,146.516 98.218 C 146.724 98.218,147.182 97.610,147.534 96.868 C 147.887 96.125,148.519 95.206,148.939 94.826 C 149.359 94.446,149.703 93.964,149.703 93.754 C 149.703 93.545,150.161 92.905,150.720 92.331 C 151.279 91.757,152.771 90.218,154.036 88.911 C 157.106 85.737,159.948 83.168,160.389 83.168 C 160.586 83.168,160.980 82.856,161.265 82.475 C 161.549 82.094,162.317 81.520,162.970 81.199 C 163.624 80.879,164.426 80.373,164.752 80.075 C 165.517 79.379,167.846 78.046,171.089 76.451 C 172.505 75.754,174.287 74.867,175.050 74.479 C 175.812 74.091,177.371 73.553,178.515 73.283 C 179.658 73.013,180.594 72.655,180.594 72.486 C 180.594 72.318,182.153 71.857,184.059 71.463 C 185.965 71.069,187.614 70.626,187.723 70.480 C 189.058 68.685,216.172 68.690,217.426 70.485 C 217.535 70.640,219.317 71.091,221.386 71.485 C 223.455 71.880,225.243 72.344,225.358 72.517 C 225.473 72.690,227.790 73.150,230.506 73.538 C 233.223 73.927,235.505 74.381,235.578 74.548 C 235.762 74.971,246.337 74.931,246.337 74.507 C 246.337 74.317,247.450 74.039,248.812 73.890 C 251.656 73.578,254.022 73.010,255.446 72.298 C 255.990 72.026,257.282 71.575,258.317 71.296 C 259.351 71.017,260.198 70.668,260.198 70.522 C 260.198 70.375,261.089 69.935,262.178 69.543 C 263.267 69.152,264.158 68.700,264.158 68.538 C 264.158 68.377,264.880 68.007,265.762 67.716 C 266.644 67.425,267.490 66.996,267.643 66.762 C 267.796 66.528,268.634 65.982,269.505 65.548 C 270.376 65.115,271.178 64.651,271.287 64.519 C 271.396 64.386,271.886 64.066,272.376 63.808 C 272.866 63.550,273.267 62.983,273.267 62.548 C 273.267 61.771,273.086 61.762,263.267 62.024 C 253.650 62.281,245.301 61.829,244.755 61.022 C 244.645 60.859,243.262 60.395,241.683 59.990 C 240.104 59.585,238.812 59.138,238.812 58.996 C 238.812 58.855,237.743 58.416,236.436 58.020 C 235.129 57.624,234.059 57.174,234.059 57.019 C 234.059 56.865,232.990 56.438,231.683 56.071 C 230.376 55.705,229.307 55.258,229.307 55.079 C 229.307 54.899,228.817 54.654,228.218 54.534 C 227.619 54.413,226.594 54.095,225.941 53.827 C 225.287 53.558,224.530 53.375,224.257 53.419 C 223.985 53.464,223.762 53.343,223.762 53.150 C 223.762 52.958,222.515 52.565,220.990 52.277 C 219.465 51.990,218.218 51.631,218.218 51.480 C 218.218 50.247,198.145 49.526,190.896 50.499 M378.614 176.492 C 376.335 176.904,372.292 179.695,372.281 180.863 C 372.279 181.120,371.965 181.641,371.584 182.022 C 370.762 182.844,370.553 189.513,371.333 190.014 C 371.576 190.170,371.889 190.665,372.029 191.114 C 372.695 193.251,375.961 195.644,378.213 195.644 C 378.843 195.644,379.469 195.822,379.604 196.040 C 379.739 196.257,380.284 196.436,380.815 196.436 C 381.347 196.436,381.782 196.257,381.782 196.040 C 381.782 195.822,382.233 195.644,382.785 195.644 C 390.821 195.644,392.988 180.015,385.286 177.609 C 384.775 177.450,384.267 177.183,384.158 177.017 C 383.907 176.632,379.923 176.255,378.614 176.492 M38.982 180.198 C 38.587 181.723,38.136 182.970,37.980 182.970 C 37.825 182.970,37.380 183.995,36.992 185.248 C 36.604 186.500,36.179 187.614,36.048 187.723 C 35.916 187.832,35.561 188.723,35.259 189.703 C 34.956 190.683,34.564 191.680,34.388 191.918 C 34.211 192.155,34.184 192.467,34.327 192.611 C 34.470 192.754,34.412 192.871,34.197 192.871 C 33.982 192.871,33.564 193.762,33.267 194.851 C 32.971 195.941,32.617 196.832,32.482 196.832 C 32.347 196.832,31.905 197.990,31.500 199.406 C 31.095 200.822,30.641 201.980,30.490 201.980 C 30.340 201.980,29.903 203.139,29.520 204.554 C 29.137 205.970,28.693 207.129,28.534 207.129 C 28.376 207.129,27.915 208.287,27.510 209.703 C 27.105 211.119,26.670 212.277,26.543 212.277 C 26.415 212.277,26.072 213.124,25.779 214.158 C 25.486 215.193,25.029 216.396,24.763 216.832 C 24.496 217.267,24.063 218.337,23.799 219.208 C 23.304 220.846,22.217 223.584,20.969 226.337 C 20.574 227.208,20.040 228.767,19.781 229.802 C 19.523 230.837,19.189 231.683,19.038 231.683 C 18.887 231.683,18.430 232.797,18.023 234.158 C 17.615 235.520,17.080 236.836,16.833 237.084 C 16.586 237.332,16.160 238.535,15.886 239.757 C 15.613 240.980,15.247 241.980,15.073 241.980 C 14.900 241.980,14.458 243.050,14.091 244.356 C 13.724 245.663,13.271 246.733,13.084 246.733 C 12.896 246.733,12.622 247.449,12.474 248.325 C 12.326 249.200,11.992 250.136,11.732 250.404 C 11.472 250.672,10.925 252.005,10.517 253.366 C 10.109 254.728,9.663 255.842,9.524 255.842 C 9.282 255.842,8.317 259.012,8.317 259.808 C 8.317 260.051,11.206 260.198,15.968 260.198 L 23.619 260.198 24.158 258.218 C 24.455 257.129,24.811 256.238,24.950 256.238 C 25.090 256.238,25.446 255.347,25.743 254.257 C 26.039 253.168,26.404 252.277,26.554 252.277 C 26.704 252.277,27.138 251.163,27.518 249.802 C 27.899 248.441,28.332 247.238,28.481 247.129 C 28.768 246.919,30.099 242.947,30.099 242.302 C 30.099 240.849,30.782 240.792,48.062 240.792 L 64.894 240.792 65.544 243.026 C 65.901 244.254,66.435 245.635,66.731 246.095 C 67.026 246.555,67.392 247.608,67.543 248.435 C 67.694 249.263,68.026 250.154,68.280 250.415 C 68.763 250.912,70.099 254.763,70.099 255.656 C 70.099 255.940,70.250 256.231,70.436 256.304 C 70.621 256.376,71.036 257.238,71.359 258.218 L 71.947 260.000 79.538 260.108 C 86.245 260.203,87.129 260.142,87.129 259.588 C 87.129 258.733,85.917 255.035,85.317 254.059 C 85.049 253.624,84.709 252.688,84.562 251.980 C 84.414 251.272,84.169 250.693,84.017 250.693 C 83.864 250.693,83.410 249.583,83.007 248.226 C 82.605 246.868,82.053 245.398,81.781 244.958 C 81.510 244.518,81.048 243.312,80.755 242.277 C 80.463 241.243,80.105 240.396,79.961 240.396 C 79.816 240.396,79.487 239.550,79.229 238.515 C 78.971 237.480,78.537 236.277,78.264 235.842 C 77.992 235.406,77.452 234.025,77.066 232.773 C 76.679 231.521,76.219 230.408,76.043 230.299 C 75.867 230.190,75.509 229.210,75.248 228.120 C 74.986 227.030,74.636 226.139,74.468 226.139 C 74.301 226.139,73.864 225.069,73.497 223.762 C 73.130 222.455,72.661 221.386,72.455 221.386 C 72.248 221.386,72.079 221.139,72.079 220.838 C 72.079 220.055,70.786 216.078,70.455 215.842 C 70.303 215.733,69.869 214.574,69.492 213.267 C 69.115 211.960,68.685 210.802,68.537 210.693 C 68.389 210.584,67.950 209.470,67.562 208.218 C 67.174 206.965,66.715 205.941,66.542 205.941 C 66.369 205.941,66.105 205.272,65.955 204.455 C 65.806 203.639,65.451 202.608,65.167 202.166 C 64.882 201.723,64.328 200.342,63.936 199.096 C 63.543 197.851,63.076 196.832,62.898 196.832 C 62.720 196.832,62.574 196.585,62.574 196.283 C 62.574 195.533,61.289 191.532,60.969 191.287 C 60.827 191.178,60.394 190.109,60.006 188.911 C 59.618 187.713,59.163 186.554,58.995 186.337 C 58.827 186.119,58.392 184.916,58.029 183.663 C 57.666 182.411,57.238 181.386,57.076 181.386 C 56.915 181.386,56.555 180.495,56.276 179.406 L 55.768 177.426 47.735 177.426 L 39.701 177.426 38.982 180.198 M48.675 199.604 C 48.954 200.693,49.317 201.584,49.483 201.584 C 49.648 201.584,50.097 202.743,50.480 204.158 C 50.863 205.574,51.303 206.733,51.458 206.733 C 51.612 206.733,51.981 207.624,52.277 208.713 C 52.574 209.802,52.973 210.693,53.164 210.693 C 53.356 210.693,53.397 210.879,53.257 211.106 C 53.116 211.334,53.171 211.735,53.380 211.998 C 53.588 212.260,53.985 213.188,54.263 214.059 C 54.541 214.931,54.885 215.733,55.027 215.842 C 55.169 215.950,55.625 217.198,56.040 218.614 C 56.454 220.030,56.944 221.293,57.129 221.421 C 57.313 221.549,57.718 222.617,58.028 223.794 C 58.339 224.971,58.776 225.994,58.999 226.069 C 59.223 226.144,59.406 226.457,59.406 226.766 C 59.406 227.237,57.560 227.327,47.878 227.327 C 37.389 227.327,36.373 227.269,36.598 226.682 C 36.735 226.327,37.042 225.258,37.282 224.305 C 37.522 223.353,37.855 222.574,38.023 222.574 C 38.191 222.574,38.641 221.416,39.025 220.000 C 39.408 218.584,39.845 217.426,39.995 217.426 C 40.146 217.426,40.600 216.267,41.005 214.851 C 41.410 213.436,41.849 212.277,41.980 212.277 C 42.112 212.277,42.550 211.119,42.955 209.703 C 43.360 208.287,43.823 207.129,43.984 207.129 C 44.146 207.129,44.491 206.238,44.752 205.149 C 45.014 204.059,45.348 203.168,45.496 203.168 C 45.772 203.168,47.129 198.955,47.129 198.099 C 47.129 196.791,48.228 197.861,48.675 199.604 M110.507 202.840 C 109.098 203.041,107.850 203.339,107.735 203.503 C 107.619 203.667,106.417 204.130,105.062 204.533 C 103.708 204.936,102.678 205.391,102.772 205.545 C 102.867 205.698,102.228 206.038,101.352 206.300 C 100.477 206.562,99.661 207.034,99.541 207.349 C 99.420 207.663,99.136 207.921,98.909 207.921 C 98.127 207.921,92.703 212.681,92.657 213.408 C 92.648 213.549,92.114 214.280,91.469 215.035 C 90.824 215.789,90.297 216.622,90.297 216.887 C 90.297 217.152,90.047 217.619,89.741 217.925 C 89.154 218.513,87.921 221.805,87.921 222.786 C 87.921 223.105,87.764 223.366,87.573 223.366 C 86.160 223.366,86.100 239.886,87.510 240.790 C 87.681 240.900,87.955 241.614,88.118 242.376 C 88.390 243.643,90.581 248.110,91.483 249.234 C 94.010 252.386,97.249 255.618,98.554 256.290 C 99.131 256.588,99.782 257.027,100.000 257.266 C 100.218 257.504,101.020 257.942,101.782 258.239 C 102.545 258.536,103.371 258.976,103.619 259.217 C 103.866 259.458,105.114 259.888,106.391 260.173 C 107.668 260.457,108.840 260.891,108.995 261.137 C 109.376 261.739,124.264 261.765,124.668 261.164 C 124.823 260.933,126.153 260.423,127.624 260.031 C 129.094 259.639,130.297 259.184,130.297 259.020 C 130.297 258.856,131.099 258.415,132.079 258.041 C 133.059 257.667,133.861 257.209,133.861 257.024 C 133.861 256.839,134.208 256.577,134.631 256.443 C 136.118 255.971,140.281 251.686,140.135 250.777 C 139.848 248.984,129.901 239.636,129.901 241.158 C 129.901 241.712,127.648 243.848,126.225 244.643 C 125.532 245.030,124.732 245.564,124.447 245.829 C 124.162 246.095,122.866 246.532,121.568 246.800 C 120.270 247.068,119.208 247.430,119.208 247.604 C 119.208 247.778,118.228 247.921,117.030 247.921 C 115.832 247.921,114.851 247.743,114.851 247.525 C 114.851 247.307,114.361 247.126,113.762 247.123 C 112.507 247.116,109.744 246.222,109.366 245.701 C 109.051 245.267,107.736 244.411,106.931 244.116 C 106.192 243.844,104.768 241.863,103.902 239.901 C 103.541 239.084,103.110 238.416,102.943 238.416 C 101.577 238.416,101.558 226.838,102.922 225.743 C 103.057 225.634,103.525 224.842,103.960 223.982 C 105.362 221.217,109.229 218.038,111.698 217.621 C 112.561 217.475,113.267 217.194,113.267 216.995 C 113.267 216.796,114.960 216.634,117.030 216.634 C 119.099 216.634,120.792 216.773,120.792 216.943 C 120.792 217.114,121.604 217.493,122.596 217.785 C 123.588 218.078,124.621 218.518,124.890 218.763 C 125.492 219.310,126.729 220.112,127.525 220.471 C 127.851 220.619,128.352 221.064,128.636 221.459 C 129.389 222.506,130.471 222.343,131.747 220.990 C 132.364 220.337,133.021 219.802,133.206 219.802 C 133.392 219.802,134.406 218.955,135.459 217.921 C 136.513 216.886,138.010 215.519,138.786 214.884 C 139.563 214.248,140.198 213.507,140.198 213.239 C 140.198 212.685,137.839 209.901,137.371 209.901 C 137.203 209.901,136.568 209.443,135.959 208.883 C 134.054 207.133,133.701 206.887,132.277 206.324 C 131.515 206.023,130.668 205.559,130.396 205.293 C 130.124 205.027,128.921 204.590,127.723 204.322 C 126.525 204.054,125.545 203.706,125.545 203.549 C 125.545 202.599,115.510 202.126,110.507 202.840 M167.327 202.831 C 165.802 203.025,164.495 203.359,164.422 203.573 C 164.350 203.786,164.044 203.960,163.743 203.960 C 162.789 203.960,159.493 205.203,158.915 205.781 C 158.609 206.087,158.189 206.337,157.982 206.337 C 157.426 206.337,153.517 209.087,153.149 209.738 C 152.974 210.045,152.580 210.297,152.271 210.297 C 151.963 210.297,151.506 210.680,151.256 211.147 C 151.006 211.615,150.242 212.559,149.559 213.245 C 148.876 213.932,147.960 215.195,147.525 216.052 C 147.089 216.910,146.510 217.850,146.238 218.141 C 145.965 218.432,145.743 218.838,145.743 219.043 C 145.743 219.247,145.393 220.170,144.965 221.093 C 143.984 223.211,143.388 225.833,143.376 228.091 C 143.371 229.055,143.150 230.444,142.885 231.176 C 142.507 232.221,142.507 232.673,142.885 233.278 C 143.150 233.702,143.366 234.903,143.366 235.948 C 143.366 238.584,145.691 246.314,146.589 246.666 C 146.773 246.737,147.229 247.450,147.602 248.250 C 147.975 249.049,148.601 249.936,148.992 250.220 C 149.383 250.505,149.703 250.930,149.703 251.164 C 149.703 251.772,152.873 254.665,155.122 256.109 C 155.736 256.503,156.574 257.130,156.984 257.502 C 157.395 257.874,158.241 258.291,158.865 258.428 C 159.489 258.565,160.000 258.808,160.000 258.969 C 160.000 259.331,163.927 260.594,165.051 260.594 C 165.504 260.594,165.949 260.817,166.040 261.089 C 166.164 261.462,168.049 261.584,173.664 261.584 C 179.279 261.584,181.163 261.462,181.287 261.089 C 181.378 260.817,181.785 260.594,182.193 260.594 C 183.032 260.594,184.092 260.193,187.624 258.537 C 188.985 257.898,190.099 257.253,190.099 257.102 C 190.099 256.951,190.661 256.578,191.347 256.274 C 192.990 255.547,196.833 251.715,196.828 250.809 C 196.822 249.855,187.492 240.643,186.901 241.009 C 186.652 241.163,185.714 242.068,184.818 243.021 C 183.921 243.973,182.970 244.752,182.703 244.752 C 182.436 244.752,182.071 245.014,181.892 245.334 C 181.713 245.653,180.323 246.233,178.803 246.621 C 177.283 247.009,175.980 247.460,175.908 247.624 C 175.707 248.075,171.089 247.980,171.089 247.525 C 171.089 247.307,170.764 247.129,170.368 247.129 C 169.277 247.129,165.914 245.906,165.031 245.188 C 163.284 243.768,161.614 241.951,160.927 240.723 C 160.526 240.006,159.995 239.201,159.746 238.933 C 158.641 237.741,158.143 231.807,158.865 228.435 C 159.561 225.188,162.906 219.802,164.227 219.802 C 164.494 219.802,164.856 219.562,165.030 219.269 C 165.204 218.976,166.238 218.411,167.327 218.013 C 168.416 217.615,169.522 217.126,169.785 216.927 C 170.420 216.446,177.084 216.478,177.387 216.964 C 177.517 217.173,178.426 217.553,179.406 217.809 C 180.386 218.065,181.366 218.502,181.584 218.780 C 181.802 219.057,182.604 219.605,183.366 219.998 C 184.129 220.391,184.985 221.042,185.270 221.445 C 186.224 222.796,188.887 221.440,191.415 218.317 C 191.812 217.827,192.293 217.426,192.485 217.426 C 192.996 217.426,196.832 213.505,196.832 212.983 C 196.832 212.404,193.704 209.412,192.122 208.477 C 191.445 208.077,190.891 207.630,190.891 207.482 C 190.891 207.335,190.178 206.929,189.307 206.581 C 188.436 206.232,187.723 205.807,187.723 205.636 C 187.723 205.329,183.581 203.960,182.654 203.960 C 182.392 203.960,182.178 203.804,182.178 203.612 C 182.178 202.613,172.867 202.123,167.327 202.831 M221.984 202.852 C 220.679 203.061,219.521 203.352,219.410 203.499 C 219.299 203.646,218.183 204.106,216.931 204.521 C 215.678 204.937,214.653 205.414,214.653 205.582 C 214.653 205.750,214.252 206.006,213.762 206.152 C 213.272 206.298,212.213 206.934,211.409 207.565 C 210.605 208.196,209.862 208.713,209.757 208.713 C 209.380 208.713,207.136 211.152,206.460 212.297 C 206.080 212.940,205.621 213.465,205.439 213.465 C 205.257 213.465,204.847 214.089,204.529 214.851 C 204.210 215.614,203.802 216.238,203.622 216.238 C 203.442 216.238,203.060 216.950,202.772 217.822 C 202.485 218.693,202.114 219.406,201.949 219.406 C 201.596 219.406,200.396 224.442,200.396 225.920 C 200.396 226.476,200.218 226.931,200.000 226.931 C 199.756 226.931,199.604 228.911,199.604 232.079 C 199.604 234.911,199.746 237.228,199.919 237.228 C 200.093 237.228,200.442 238.431,200.696 239.901 C 201.095 242.210,202.293 245.063,204.533 249.037 C 204.818 249.543,205.429 250.221,205.892 250.545 C 206.354 250.869,206.733 251.311,206.733 251.527 C 206.733 252.026,209.266 254.653,209.747 254.653 C 209.945 254.653,210.329 255.010,210.601 255.446 C 210.873 255.881,211.353 256.238,211.667 256.238 C 211.981 256.238,212.380 256.470,212.555 256.754 C 212.729 257.038,213.584 257.599,214.455 258.001 C 215.327 258.402,216.129 258.847,216.238 258.989 C 216.512 259.346,220.525 260.594,221.399 260.594 C 221.791 260.594,222.186 260.817,222.277 261.089 C 222.488 261.720,237.890 261.810,238.331 261.182 C 238.487 260.961,239.861 260.455,241.384 260.058 C 242.908 259.661,244.245 259.209,244.355 259.054 C 244.465 258.898,245.401 258.454,246.436 258.066 C 247.470 257.678,248.317 257.209,248.317 257.024 C 248.317 256.839,248.718 256.565,249.208 256.416 C 250.677 255.970,252.673 254.269,252.673 253.464 C 252.673 252.553,251.865 250.693,251.470 250.693 C 251.313 250.693,250.962 250.154,250.689 249.496 C 250.416 248.837,249.984 248.169,249.729 248.010 C 249.473 247.852,248.954 247.054,248.574 246.238 C 248.194 245.421,247.735 244.752,247.554 244.752 C 247.373 244.752,247.003 244.218,246.733 243.564 C 246.096 242.028,244.120 242.188,243.050 243.861 C 242.875 244.134,242.508 244.356,242.233 244.356 C 241.958 244.356,241.368 244.697,240.922 245.113 C 240.476 245.528,238.972 246.166,237.580 246.529 C 236.188 246.892,234.740 247.354,234.362 247.555 C 233.477 248.025,227.530 248.032,226.628 247.563 C 226.250 247.367,225.147 246.970,224.176 246.681 C 223.206 246.393,222.142 245.840,221.811 245.454 C 221.481 245.068,221.027 244.752,220.803 244.750 C 219.691 244.745,215.446 239.216,215.446 237.773 C 215.446 237.691,224.713 237.624,236.040 237.624 L 256.634 237.624 256.620 232.970 C 256.606 228.378,255.847 222.577,255.140 221.660 C 254.940 221.400,254.547 220.342,254.267 219.307 C 253.987 218.272,253.625 217.426,253.462 217.426 C 253.299 217.426,252.934 216.847,252.652 216.139 C 252.058 214.652,252.018 214.601,248.444 210.792 C 246.962 209.213,245.525 207.921,245.251 207.921 C 244.977 207.921,244.752 207.751,244.752 207.543 C 244.752 207.336,244.084 206.852,243.267 206.469 C 242.450 206.086,241.574 205.570,241.319 205.323 C 241.065 205.076,239.995 204.637,238.943 204.347 C 237.891 204.058,236.940 203.690,236.830 203.529 C 236.174 202.572,226.487 202.130,221.984 202.852 M280.217 202.829 C 278.703 203.023,277.366 203.321,277.247 203.491 C 277.127 203.661,275.916 204.132,274.554 204.537 C 273.193 204.942,272.079 205.404,272.079 205.562 C 272.079 205.721,271.455 206.146,270.693 206.508 C 269.931 206.870,269.307 207.336,269.307 207.543 C 269.307 207.751,269.079 207.921,268.800 207.921 C 268.177 207.921,266.135 210.106,265.376 211.584 C 265.068 212.183,264.688 212.673,264.531 212.673 C 264.374 212.673,264.009 213.475,263.720 214.455 C 263.430 215.436,263.073 216.238,262.926 216.238 C 262.540 216.238,262.553 224.245,262.939 224.737 C 263.117 224.963,263.478 225.817,263.741 226.634 C 264.005 227.450,264.372 228.119,264.558 228.119 C 264.745 228.119,265.006 228.462,265.139 228.881 C 265.426 229.785,267.691 232.079,268.297 232.079 C 268.530 232.079,268.943 232.436,269.215 232.871 C 269.487 233.307,269.899 233.663,270.131 233.663 C 270.362 233.663,270.783 233.894,271.065 234.177 C 271.347 234.459,272.359 234.942,273.314 235.249 C 274.269 235.557,275.148 235.948,275.269 236.119 C 275.389 236.289,276.726 236.712,278.239 237.058 C 279.752 237.404,281.257 237.825,281.584 237.993 C 281.911 238.161,284.005 238.620,286.238 239.012 C 288.470 239.404,290.297 239.847,290.297 239.997 C 290.297 240.147,291.027 240.510,291.920 240.805 C 294.827 241.764,295.097 245.383,292.355 246.650 C 291.550 247.022,290.795 247.455,290.677 247.612 C 289.953 248.577,279.545 248.579,278.832 247.615 C 278.712 247.453,277.635 246.976,276.438 246.556 C 275.242 246.136,273.916 245.469,273.492 245.074 C 273.069 244.679,272.553 244.356,272.347 244.356 C 272.141 244.356,271.573 243.955,271.086 243.465 C 267.304 239.663,266.795 239.783,263.514 245.252 C 263.269 245.661,262.689 246.261,262.227 246.585 C 261.765 246.909,261.386 247.342,261.386 247.547 C 261.386 247.753,261.030 248.322,260.594 248.812 C 259.057 250.541,258.614 251.091,258.614 251.269 C 258.614 251.876,262.163 254.848,264.356 256.078 C 265.010 256.444,265.634 256.865,265.743 257.013 C 265.851 257.161,266.742 257.598,267.722 257.984 C 268.701 258.370,269.592 258.816,269.702 258.976 C 269.958 259.349,274.448 260.594,275.538 260.594 C 275.995 260.594,276.444 260.817,276.535 261.089 C 276.751 261.737,292.551 261.809,292.985 261.164 C 293.140 260.932,294.292 260.519,295.545 260.244 C 296.797 259.970,298.051 259.516,298.332 259.236 C 298.612 258.955,299.525 258.479,300.361 258.176 C 301.198 257.874,301.968 257.403,302.072 257.130 C 302.177 256.857,302.472 256.634,302.728 256.634 C 303.613 256.634,307.186 252.454,308.283 250.134 C 309.492 247.578,309.760 238.393,308.645 237.704 C 308.390 237.547,308.062 236.943,307.917 236.363 C 307.351 234.108,303.276 230.438,300.039 229.267 C 299.255 228.984,298.614 228.631,298.614 228.483 C 298.614 228.171,293.883 226.931,292.691 226.931 C 292.246 226.931,291.881 226.782,291.881 226.599 C 291.881 226.417,289.966 225.956,287.626 225.575 C 285.285 225.193,283.280 224.755,283.170 224.600 C 283.060 224.445,282.168 224.087,281.188 223.805 C 279.230 223.242,277.050 221.231,277.403 220.314 C 277.524 219.997,277.624 219.526,277.624 219.268 C 277.624 218.029,281.983 216.150,285.343 215.940 C 288.674 215.732,293.861 216.420,293.861 217.069 C 293.861 217.259,294.680 217.620,295.681 217.872 C 296.681 218.124,297.815 218.669,298.200 219.082 C 299.248 220.207,301.692 220.509,302.038 219.556 C 302.186 219.147,302.548 218.545,302.842 218.218 C 303.780 217.176,306.139 213.500,306.139 213.079 C 306.139 212.856,306.304 212.673,306.506 212.673 C 307.995 212.673,308.445 208.840,307.030 208.214 C 306.431 207.949,305.762 207.535,305.545 207.294 C 305.327 207.052,304.525 206.615,303.762 206.321 C 303.000 206.028,302.287 205.680,302.178 205.547 C 301.923 205.238,297.901 203.960,297.182 203.960 C 296.881 203.960,296.634 203.805,296.634 203.616 C 296.634 202.637,285.778 202.116,280.217 202.829 M335.248 202.831 C 333.723 203.025,332.416 203.359,332.343 203.573 C 332.271 203.786,331.965 203.960,331.664 203.960 C 330.591 203.960,327.406 205.228,326.605 205.974 C 326.158 206.391,325.552 206.733,325.259 206.733 C 324.967 206.733,324.625 207.000,324.500 207.327 C 324.374 207.653,324.058 207.921,323.798 207.921 C 323.236 207.921,320.792 210.361,320.792 210.921 C 320.792 211.134,320.463 211.591,320.060 211.936 C 319.657 212.281,319.084 213.390,318.785 214.400 C 318.487 215.411,318.104 216.238,317.933 216.238 C 317.502 216.238,317.543 224.458,317.976 224.725 C 318.170 224.845,318.449 225.435,318.597 226.036 C 318.868 227.135,321.516 231.287,321.947 231.288 C 322.074 231.288,322.696 231.733,323.329 232.278 C 323.962 232.822,324.603 233.267,324.753 233.267 C 324.904 233.267,325.402 233.592,325.860 233.989 C 326.318 234.386,327.459 234.958,328.396 235.260 C 329.333 235.562,330.194 235.942,330.310 236.105 C 330.556 236.451,334.890 237.624,335.925 237.624 C 336.315 237.624,336.634 237.773,336.634 237.955 C 336.634 238.137,338.549 238.598,340.889 238.980 C 343.230 239.361,345.235 239.820,345.346 239.999 C 345.456 240.178,346.293 240.623,347.205 240.987 C 349.944 242.084,350.051 245.239,347.394 246.588 C 346.595 246.994,345.844 247.455,345.726 247.612 C 345.012 248.563,334.596 248.605,333.908 247.659 C 333.773 247.474,332.639 246.983,331.386 246.568 C 330.134 246.152,329.109 245.683,329.109 245.525 C 329.109 245.368,328.485 244.943,327.723 244.581 C 326.960 244.219,326.337 243.792,326.337 243.631 C 326.337 243.471,325.757 243.003,325.050 242.592 C 324.342 242.180,323.620 241.607,323.446 241.318 C 322.904 240.418,321.359 240.696,320.864 241.782 C 320.616 242.327,320.252 242.772,320.055 242.772 C 319.858 242.772,319.592 243.084,319.464 243.465 C 319.109 244.521,318.314 245.631,317.327 246.448 C 316.837 246.854,316.436 247.398,316.436 247.656 C 316.436 247.915,316.079 248.349,315.644 248.621 C 315.208 248.893,314.851 249.362,314.851 249.664 C 314.851 249.966,314.584 250.315,314.257 250.440 C 313.310 250.804,313.575 251.593,315.072 252.871 C 315.838 253.525,316.923 254.454,317.483 254.936 C 318.042 255.418,319.016 256.041,319.646 256.320 C 320.276 256.599,320.792 256.938,320.792 257.073 C 320.792 257.208,321.639 257.638,322.673 258.029 C 323.708 258.419,324.644 258.846,324.752 258.976 C 325.047 259.328,327.504 260.112,329.307 260.429 C 330.178 260.583,331.018 260.905,331.174 261.146 C 331.558 261.741,347.635 261.758,348.034 261.164 C 348.190 260.932,349.342 260.519,350.594 260.244 C 351.847 259.970,353.101 259.516,353.381 259.236 C 353.661 258.955,354.575 258.479,355.411 258.176 C 356.247 257.874,357.017 257.403,357.122 257.130 C 357.227 256.857,357.501 256.634,357.731 256.634 C 358.299 256.634,361.577 253.382,361.581 252.815 C 361.583 252.566,361.827 252.269,362.125 252.155 C 362.422 252.040,362.907 251.130,363.201 250.132 C 363.496 249.134,363.877 248.317,364.047 248.317 C 364.217 248.317,364.356 246.267,364.356 243.762 C 364.356 240.990,364.201 239.208,363.960 239.208 C 363.743 239.208,363.564 238.873,363.564 238.464 C 363.564 237.407,362.440 234.851,361.975 234.851 C 361.760 234.851,361.584 234.619,361.584 234.335 C 361.584 233.294,357.613 230.180,355.149 229.289 C 354.332 228.993,353.663 228.639,353.663 228.502 C 353.663 228.364,352.282 227.931,350.594 227.540 C 348.906 227.149,347.168 226.681,346.733 226.499 C 346.297 226.317,344.248 225.870,342.178 225.505 C 340.109 225.140,338.327 224.724,338.218 224.580 C 338.109 224.436,337.218 224.087,336.238 223.805 C 334.280 223.242,332.100 221.231,332.452 220.314 C 332.574 219.997,332.673 219.498,332.673 219.205 C 332.673 217.957,336.925 216.156,340.381 215.941 C 343.627 215.738,348.911 216.412,348.911 217.029 C 348.911 217.197,349.838 217.638,350.972 218.009 C 352.105 218.379,353.219 218.939,353.448 219.251 C 354.158 220.222,356.767 220.440,357.087 219.556 C 357.235 219.147,357.597 218.545,357.891 218.218 C 358.808 217.200,361.188 213.504,361.188 213.099 C 361.188 212.886,361.411 212.570,361.683 212.396 C 363.300 211.362,363.603 208.859,362.178 208.317 C 361.634 208.110,361.188 207.772,361.188 207.566 C 361.188 207.361,360.297 206.896,359.208 206.535 C 358.119 206.173,357.228 205.733,357.228 205.557 C 357.228 205.381,356.025 204.916,354.554 204.524 C 353.084 204.132,351.792 203.689,351.683 203.539 C 350.992 202.588,340.638 202.142,335.248 202.831 M372.673 232.079 L 372.673 260.198 380.396 260.198 L 388.119 260.198 388.119 232.079 L 388.119 203.960 380.396 203.960 L 372.673 203.960 372.673 232.079 M233.211 216.921 C 233.351 217.137,234.150 217.559,234.986 217.858 C 235.822 218.158,236.675 218.717,236.881 219.102 C 237.087 219.487,237.521 219.802,237.846 219.802 C 238.170 219.802,238.599 220.233,238.800 220.760 C 239.000 221.287,239.413 221.866,239.716 222.047 C 240.269 222.377,241.188 224.597,241.188 225.604 C 241.188 226.042,238.862 226.139,228.317 226.139 C 221.234 226.139,215.446 225.983,215.446 225.792 C 215.446 224.969,216.640 222.166,217.300 221.442 C 217.696 221.007,218.234 220.415,218.496 220.127 C 219.797 218.697,222.260 217.253,224.554 216.575 C 225.940 216.165,232.903 216.444,233.211 216.921 " stroke="none" fill="#646464" fill-rule="evenodd"></path><path id="path1" d="M188.713 90.322 C 187.406 90.523,186.069 90.805,185.743 90.949 C 185.416 91.093,184.837 91.172,184.455 91.125 C 184.074 91.078,183.762 91.205,183.762 91.408 C 183.762 91.611,183.183 91.872,182.475 91.987 C 173.380 93.466,159.925 104.753,154.192 115.710 C 153.357 117.307,152.524 118.723,152.342 118.856 C 152.160 118.989,152.026 119.257,152.044 119.450 C 152.080 119.835,151.036 123.286,150.500 124.554 C 149.811 126.185,149.237 129.418,149.024 132.871 C 148.903 134.832,148.605 136.693,148.362 137.007 C 148.011 137.462,148.042 137.510,148.515 137.246 C 148.998 136.976,149.016 137.013,148.614 137.447 C 148.059 138.045,147.934 140.198,148.454 140.198 C 148.639 140.198,148.902 142.150,149.038 144.536 C 149.181 147.039,149.601 149.846,150.031 151.170 C 150.441 152.432,151.097 154.535,151.489 155.842 C 151.881 157.149,152.312 158.307,152.448 158.416 C 152.584 158.525,153.036 159.416,153.452 160.396 C 153.868 161.376,154.442 162.460,154.728 162.803 C 155.014 163.147,155.248 163.610,155.248 163.831 C 155.248 164.053,155.604 164.556,156.040 164.950 C 156.475 165.345,156.832 165.825,156.832 166.019 C 156.832 167.132,162.158 173.136,166.149 176.522 C 169.627 179.472,170.463 180.077,171.584 180.454 C 171.965 180.582,172.277 180.830,172.277 181.004 C 172.277 181.179,173.168 181.618,174.257 181.980 C 175.347 182.342,176.238 182.802,176.238 183.002 C 176.238 183.202,176.401 183.366,176.601 183.366 C 176.801 183.366,177.825 183.751,178.878 184.220 C 186.171 187.474,201.826 188.872,207.921 186.814 C 208.901 186.483,210.681 186.010,211.877 185.763 C 213.073 185.516,214.978 184.876,216.110 184.340 C 217.242 183.805,218.358 183.366,218.589 183.366 C 218.821 183.366,219.010 183.202,219.010 183.002 C 219.010 182.801,219.563 182.516,220.238 182.367 C 220.914 182.219,221.766 181.798,222.133 181.432 C 222.499 181.065,223.461 180.451,224.271 180.067 C 225.080 179.683,225.743 179.239,225.743 179.081 C 225.743 178.923,226.322 178.480,227.030 178.096 C 228.404 177.350,234.059 172.207,234.059 171.702 C 234.059 171.537,234.492 171.061,235.021 170.645 C 235.550 170.228,236.387 169.223,236.882 168.409 C 237.376 167.596,237.929 166.827,238.112 166.701 C 238.792 166.229,242.698 158.598,243.365 156.436 C 243.534 155.891,243.809 155.356,243.977 155.247 C 244.145 155.138,244.573 153.712,244.927 152.079 C 245.281 150.445,245.661 148.752,245.772 148.317 C 246.768 144.410,247.022 136.358,246.298 131.683 C 246.095 130.376,245.930 128.906,245.930 128.416 C 245.931 127.926,245.756 127.525,245.540 127.525 C 245.325 127.525,245.149 127.144,245.149 126.680 C 245.149 125.712,244.312 122.673,243.965 122.376 C 243.837 122.267,243.383 121.064,242.955 119.703 C 242.528 118.342,242.062 117.228,241.920 117.228 C 241.778 117.228,241.489 116.738,241.278 116.139 C 240.750 114.637,236.596 108.091,236.336 108.350 C 236.221 108.466,235.884 108.013,235.588 107.345 C 235.292 106.676,234.747 106.033,234.377 105.916 C 234.007 105.798,233.594 105.399,233.460 105.029 C 233.177 104.247,227.627 99.406,227.014 99.406 C 226.787 99.406,226.528 99.188,226.439 98.922 C 226.285 98.460,224.777 97.500,221.782 95.960 C 221.020 95.568,220.175 95.039,219.905 94.785 C 219.635 94.530,218.878 94.204,218.222 94.060 C 217.566 93.916,217.030 93.615,217.030 93.392 C 217.030 93.168,216.762 93.087,216.436 93.213 C 216.109 93.338,215.842 93.281,215.842 93.085 C 215.842 92.890,214.861 92.511,213.663 92.243 C 212.465 91.975,211.485 91.597,211.485 91.405 C 211.485 91.212,211.262 91.097,210.990 91.149 C 210.718 91.202,210.139 91.127,209.703 90.984 C 209.267 90.841,208.376 90.606,207.723 90.462 C 205.785 90.034,191.287 89.927,188.713 90.322 M19.802 316.071 L 19.802 357.687 37.723 357.527 C 54.726 357.375,59.783 357.051,60.594 356.061 C 60.703 355.929,61.817 355.504,63.069 355.117 C 64.322 354.731,65.347 354.263,65.347 354.078 C 65.347 353.893,65.854 353.564,66.474 353.348 C 67.387 353.029,69.771 351.121,71.382 349.418 C 71.542 349.248,72.224 348.530,72.897 347.822 C 73.570 347.114,73.973 346.529,73.793 346.522 C 73.613 346.515,73.747 346.292,74.091 346.027 C 75.707 344.781,77.624 339.244,77.624 335.822 C 77.624 334.962,77.771 334.257,77.950 334.257 C 78.265 334.257,77.490 327.054,76.994 325.376 C 76.595 324.021,74.778 320.396,74.499 320.396 C 74.356 320.396,73.927 319.815,73.544 319.104 C 73.161 318.394,72.332 317.465,71.700 317.041 C 71.068 316.616,70.618 316.161,70.700 316.028 C 70.782 315.896,69.861 315.304,68.655 314.712 C 67.033 313.916,66.565 313.510,66.863 313.154 C 67.084 312.890,68.093 311.782,69.104 310.693 C 73.711 305.734,75.315 294.678,72.274 288.846 C 71.952 288.228,71.687 287.531,71.686 287.296 C 71.679 286.078,66.083 279.208,65.098 279.208 C 64.881 279.208,64.273 278.807,63.747 278.317 C 63.221 277.827,62.745 277.463,62.690 277.508 C 62.634 277.553,61.967 277.330,61.208 277.012 C 60.449 276.695,59.671 276.436,59.480 276.436 C 59.288 276.436,58.614 276.181,57.982 275.870 C 55.755 274.775,50.620 274.455,35.219 274.455 L 19.802 274.455 19.802 316.071 M209.115 315.545 C 209.118 338.144,209.271 356.871,209.455 357.161 C 210.271 358.448,247.977 357.391,249.703 356.033 C 249.921 355.861,250.901 355.509,251.881 355.249 C 252.861 354.990,253.931 354.564,254.257 354.303 C 254.584 354.041,255.381 353.568,256.029 353.250 C 257.929 352.319,263.181 346.903,263.981 345.050 C 264.380 344.124,264.815 343.366,264.947 343.366 C 265.929 343.366,267.433 335.581,267.214 331.635 C 267.028 328.282,265.794 322.940,265.086 322.422 C 264.902 322.288,264.443 321.510,264.066 320.693 C 263.688 319.876,263.210 319.208,263.003 319.208 C 262.797 319.208,262.524 318.880,262.396 318.479 C 262.269 318.078,261.723 317.514,261.182 317.224 C 260.641 316.935,260.198 316.494,260.198 316.245 C 260.198 315.996,259.322 315.409,258.251 314.942 C 255.588 313.779,255.584 313.698,258.036 311.125 C 259.225 309.878,260.198 308.704,260.198 308.516 C 260.198 308.329,260.464 307.909,260.789 307.584 C 261.494 306.879,262.574 302.946,262.574 301.082 C 262.574 300.298,262.736 299.855,262.970 300.000 C 263.212 300.149,263.366 299.550,263.366 298.463 C 263.366 297.482,263.188 296.570,262.970 296.436 C 262.752 296.301,262.572 295.444,262.568 294.531 C 262.552 289.821,260.117 284.460,256.463 281.087 C 254.325 279.114,250.828 276.995,249.109 276.630 C 248.347 276.468,247.614 276.166,247.481 275.957 C 246.828 274.932,239.593 274.461,224.455 274.458 L 209.109 274.455 209.115 315.545 M51.797 289.349 C 51.952 289.589,52.703 289.989,53.465 290.238 C 56.530 291.236,58.212 294.088,58.215 298.291 C 58.219 302.549,57.704 303.575,54.150 306.403 C 52.892 307.404,50.199 307.718,42.871 307.721 L 35.248 307.723 35.248 298.183 L 35.248 288.642 43.381 288.777 C 48.746 288.865,51.611 289.060,51.797 289.349 M242.376 289.953 C 244.879 291.325,246.137 292.618,246.756 294.455 C 247.050 295.327,247.432 296.209,247.606 296.416 C 248.014 296.904,248.017 300.198,247.609 300.198 C 247.438 300.198,247.267 300.597,247.230 301.085 C 246.853 306.090,243.302 307.642,232.076 307.706 L 224.158 307.752 224.158 298.198 L 224.158 288.644 232.376 288.810 C 240.205 288.969,240.678 289.023,242.376 289.953 M167.921 299.676 C 166.025 299.816,162.836 300.541,162.178 300.982 C 161.960 301.128,161.025 301.464,160.099 301.729 C 159.173 301.993,158.416 302.345,158.416 302.511 C 158.416 302.676,157.748 303.052,156.931 303.345 C 155.303 303.931,154.621 304.477,151.466 307.723 C 148.105 311.181,147.829 311.558,145.958 315.248 C 144.725 317.681,143.377 322.477,143.371 324.455 C 143.368 325.272,143.225 325.941,143.051 325.941 C 142.878 325.941,142.728 327.455,142.718 329.307 C 142.708 331.158,142.850 332.673,143.033 332.673 C 143.216 332.673,143.366 333.194,143.366 333.831 C 143.366 335.228,144.213 339.129,144.576 339.406 C 144.719 339.515,145.062 340.317,145.339 341.188 C 145.616 342.059,146.066 343.040,146.339 343.366 C 146.612 343.693,147.134 344.549,147.498 345.269 C 149.965 350.138,156.836 355.386,163.762 357.691 C 166.988 358.765,181.499 359.120,182.104 358.140 C 182.265 357.880,183.196 357.488,184.173 357.269 C 185.150 357.050,187.006 356.338,188.298 355.686 C 189.589 355.035,190.790 354.591,190.966 354.700 C 191.143 354.809,191.287 354.718,191.287 354.497 C 191.287 354.277,191.911 353.801,192.673 353.439 C 193.436 353.077,194.059 352.593,194.059 352.364 C 194.059 352.135,194.164 352.051,194.291 352.179 C 194.620 352.508,196.040 351.215,196.040 350.586 C 196.040 350.034,192.889 345.244,192.376 345.017 C 192.213 344.944,192.079 344.700,192.079 344.476 C 192.079 344.251,191.455 343.217,190.693 342.178 C 189.931 341.140,189.307 340.072,189.307 339.806 C 189.307 339.157,188.547 339.486,185.834 341.305 C 181.335 344.322,170.436 346.539,169.170 344.694 C 169.027 344.487,168.161 344.099,167.243 343.831 C 165.598 343.350,162.084 340.982,161.462 339.933 C 161.286 339.637,160.815 339.085,160.414 338.707 C 159.824 338.149,158.416 335.399,158.416 334.803 C 158.416 334.721,167.683 334.653,179.010 334.653 L 199.604 334.653 199.604 329.540 C 199.604 324.190,198.933 319.575,197.814 317.228 C 195.211 311.768,192.930 308.585,189.996 306.318 C 189.163 305.675,188.177 304.866,187.805 304.521 C 186.996 303.771,181.036 300.858,180.311 300.858 C 180.031 300.858,179.802 300.739,179.802 300.594 C 179.802 300.449,179.579 300.314,179.307 300.294 C 179.035 300.275,177.297 300.068,175.446 299.835 C 172.149 299.421,171.548 299.408,167.921 299.676 M358.416 299.683 C 353.770 300.186,347.399 302.567,345.149 304.640 C 344.713 305.041,343.332 306.282,342.079 307.397 C 340.827 308.511,339.802 309.658,339.802 309.945 C 339.802 310.232,339.446 310.658,339.010 310.891 C 338.574 311.124,338.218 311.542,338.218 311.820 C 338.218 312.098,337.854 312.716,337.410 313.193 C 336.966 313.669,336.702 314.059,336.824 314.059 C 336.946 314.059,336.686 314.765,336.246 315.628 C 335.806 316.490,335.446 317.471,335.446 317.806 C 335.446 318.141,335.292 318.416,335.104 318.416 C 334.721 318.416,333.861 322.298,333.861 324.026 C 333.861 324.644,333.667 325.149,333.429 325.149 C 332.451 325.149,333.853 338.116,334.987 339.550 C 335.182 339.797,335.545 340.629,335.792 341.398 C 336.039 342.167,336.854 343.727,337.603 344.864 C 338.352 346.001,338.883 346.931,338.783 346.931 C 338.079 346.931,344.987 353.106,347.150 354.411 C 349.986 356.121,353.579 357.624,354.833 357.624 C 355.243 357.624,355.652 357.847,355.742 358.119 C 355.964 358.783,371.089 358.832,371.919 358.170 C 372.225 357.927,373.188 357.602,374.059 357.449 C 374.931 357.297,376.758 356.650,378.120 356.012 C 379.482 355.373,380.752 354.851,380.943 354.851 C 381.133 354.851,381.520 354.574,381.801 354.235 C 382.083 353.895,382.862 353.384,383.533 353.097 C 386.688 351.752,387.001 349.862,384.512 347.190 C 384.100 346.748,383.762 346.253,383.762 346.092 C 383.762 345.931,383.540 345.564,383.267 345.276 C 382.995 344.988,382.507 344.218,382.184 343.564 C 381.860 342.911,381.236 342.008,380.798 341.559 C 380.359 341.109,379.813 340.413,379.585 340.012 C 379.169 339.282,377.762 339.982,374.155 342.714 C 373.772 343.004,372.435 343.482,371.184 343.776 C 369.934 344.070,368.795 344.481,368.653 344.690 C 368.294 345.217,360.642 345.204,359.525 344.674 C 359.024 344.436,357.596 343.767,356.352 343.188 C 354.185 342.179,350.585 338.938,350.792 338.183 C 350.847 337.984,350.704 337.822,350.475 337.822 C 350.124 337.822,348.911 335.527,348.911 334.864 C 348.911 334.748,358.178 334.653,369.505 334.653 L 390.099 334.653 390.099 329.834 C 390.099 323.284,388.265 314.455,386.905 314.455 C 386.754 314.455,386.400 313.876,386.117 313.168 C 385.526 311.687,385.403 311.529,382.307 308.252 C 379.983 305.793,376.206 302.970,375.241 302.970 C 374.954 302.970,374.657 302.783,374.581 302.554 C 374.337 301.824,369.027 300.208,365.545 299.803 C 362.198 299.415,361.067 299.396,358.416 299.683 M78.201 301.017 C 77.975 301.383,79.038 304.140,80.712 307.525 C 83.112 312.381,84.661 315.750,84.945 316.733 C 85.086 317.223,85.332 317.624,85.492 317.624 C 85.651 317.624,86.017 318.292,86.306 319.109 C 86.594 319.926,87.054 320.861,87.327 321.188 C 87.600 321.515,88.060 322.495,88.350 323.366 C 88.640 324.238,89.107 325.232,89.389 325.576 C 89.671 325.920,89.901 326.343,89.901 326.517 C 89.901 327.081,92.807 332.862,93.242 333.162 C 93.474 333.322,93.543 333.456,93.396 333.459 C 93.249 333.463,93.842 334.936,94.714 336.733 C 97.885 343.268,98.784 345.335,98.677 345.842 C 98.642 346.005,98.777 346.139,98.977 346.139 C 99.177 346.139,99.658 346.985,100.046 348.020 C 100.434 349.054,100.868 349.990,101.011 350.099 C 101.154 350.208,101.489 350.965,101.756 351.782 C 102.022 352.599,102.434 353.267,102.671 353.267 C 102.908 353.267,102.990 353.380,102.852 353.517 C 102.715 353.655,102.863 354.140,103.182 354.596 C 103.501 355.051,103.762 355.719,103.762 356.079 C 103.762 356.440,104.030 356.957,104.356 357.228 C 105.023 357.781,105.165 359.208,104.554 359.208 C 104.337 359.208,104.198 359.342,104.247 359.505 C 104.418 360.074,103.261 363.564,102.901 363.564 C 102.702 363.564,102.576 363.787,102.620 364.059 C 102.717 364.656,101.422 367.467,100.594 368.459 C 97.812 371.792,98.021 371.683,94.390 371.683 C 91.607 371.683,90.969 371.565,90.646 370.990 C 90.433 370.609,90.021 370.297,89.732 370.297 C 89.443 370.297,88.986 370.032,88.716 369.707 C 88.447 369.383,88.088 369.204,87.917 369.309 C 87.747 369.414,87.506 369.234,87.381 368.909 C 86.931 367.736,85.735 368.452,84.733 370.495 C 84.519 370.931,83.993 371.822,83.563 372.475 C 83.133 373.129,82.663 373.931,82.520 374.257 C 82.376 374.584,81.897 375.252,81.456 375.743 C 81.015 376.233,80.776 376.634,80.926 376.634 C 81.076 376.634,80.733 377.370,80.165 378.270 C 79.166 379.853,79.274 380.564,80.518 380.588 C 80.695 380.591,80.747 380.743,80.634 380.925 C 80.522 381.107,81.046 381.549,81.799 381.909 C 82.552 382.268,83.168 382.723,83.168 382.921 C 83.168 383.119,83.652 383.402,84.244 383.550 C 84.835 383.699,86.038 384.146,86.917 384.544 C 95.074 388.241,105.368 385.488,111.822 377.882 C 113.073 376.407,116.822 369.247,116.830 368.317 C 116.832 367.990,117.179 367.157,117.601 366.466 C 118.022 365.775,118.643 364.282,118.979 363.148 C 119.316 362.014,119.794 360.842,120.042 360.543 C 120.290 360.244,120.378 360.000,120.237 360.000 C 120.097 360.000,120.268 359.564,120.617 359.031 C 120.966 358.498,121.245 357.919,121.237 357.744 C 121.207 357.075,121.699 355.585,122.416 354.180 C 122.826 353.376,123.272 352.128,123.407 351.408 C 123.542 350.688,123.808 350.099,123.999 350.099 C 124.189 350.099,124.547 349.297,124.794 348.317 C 125.041 347.337,125.400 346.535,125.592 346.535 C 125.784 346.535,125.912 346.401,125.878 346.238 C 125.843 346.074,125.919 345.673,126.046 345.347 C 126.173 345.020,126.494 344.040,126.761 343.168 C 127.027 342.297,127.575 340.963,127.979 340.204 C 128.383 339.445,128.713 338.662,128.713 338.465 C 128.713 338.268,129.046 337.374,129.453 336.479 C 130.553 334.061,131.854 330.751,132.583 328.515 C 132.938 327.426,133.347 326.446,133.491 326.337 C 133.636 326.228,133.889 325.693,134.052 325.149 C 134.216 324.604,134.775 323.217,135.294 322.067 C 135.813 320.917,136.238 319.794,136.238 319.570 C 136.238 319.347,136.584 318.404,137.007 317.476 C 137.827 315.676,138.394 314.210,139.863 310.099 C 140.369 308.683,140.900 307.436,141.044 307.327 C 141.189 307.218,141.619 306.149,142.001 304.950 C 142.383 303.752,142.866 302.552,143.075 302.282 C 144.124 300.929,143.249 300.788,135.060 300.990 L 127.047 301.188 126.468 302.970 C 126.149 303.950,125.633 305.314,125.320 306.000 C 125.008 306.687,124.752 307.344,124.752 307.460 C 124.752 307.576,124.539 308.173,124.279 308.786 C 124.019 309.399,123.779 310.079,123.747 310.297 C 123.714 310.515,123.482 311.195,123.230 311.808 C 122.978 312.421,122.772 313.101,122.772 313.318 C 122.772 313.536,122.339 314.662,121.809 315.820 C 121.279 316.979,120.725 318.571,120.577 319.359 C 120.429 320.147,120.192 320.792,120.050 320.792 C 119.908 320.792,119.455 321.995,119.044 323.465 C 118.632 324.936,118.168 326.317,118.012 326.535 C 117.856 326.752,117.422 327.911,117.047 329.109 C 116.672 330.307,116.025 332.043,115.608 332.966 C 115.192 333.889,114.851 334.904,114.851 335.220 C 114.851 335.536,114.691 335.894,114.495 336.015 C 114.299 336.136,113.925 337.127,113.664 338.217 C 113.128 340.451,112.666 340.700,112.007 339.109 C 111.759 338.510,111.074 336.950,110.484 335.644 C 109.895 334.337,109.288 332.866,109.135 332.376 C 108.982 331.886,108.714 331.485,108.540 331.485 C 108.365 331.485,107.997 330.683,107.723 329.703 C 107.448 328.723,107.098 327.921,106.944 327.921 C 106.789 327.921,106.330 326.941,105.923 325.743 C 105.516 324.545,105.041 323.564,104.868 323.564 C 104.696 323.564,104.554 323.332,104.554 323.048 C 104.554 322.764,104.133 321.650,103.617 320.573 C 103.101 319.495,102.443 317.990,102.154 317.228 C 101.865 316.465,101.317 315.396,100.937 314.851 C 100.557 314.307,100.049 313.099,99.808 312.166 C 99.566 311.234,99.235 310.554,99.070 310.656 C 98.906 310.757,98.541 310.057,98.258 309.100 C 97.975 308.142,97.494 307.152,97.189 306.898 C 96.883 306.645,96.634 306.224,96.634 305.963 C 96.634 305.702,96.140 304.469,95.537 303.222 L 94.440 300.956 86.390 300.874 C 81.963 300.829,78.278 300.893,78.201 301.017 M268.542 300.914 C 268.199 301.029,269.463 304.644,270.180 305.599 C 270.934 306.604,272.425 309.860,272.256 310.134 C 272.156 310.295,272.209 310.487,272.374 310.560 C 272.538 310.633,273.297 312.030,274.059 313.663 C 274.822 315.297,275.624 316.765,275.842 316.925 C 276.106 317.119,276.106 317.220,275.842 317.228 C 275.578 317.236,275.578 317.337,275.842 317.531 C 276.213 317.804,278.341 322.306,279.349 324.950 C 279.598 325.604,279.899 326.228,280.019 326.337 C 280.375 326.662,282.376 330.937,282.376 331.372 C 282.376 331.593,282.774 332.280,283.260 332.898 C 283.746 333.516,283.880 333.862,283.557 333.667 C 283.053 333.363,283.047 333.407,283.509 333.978 C 284.249 334.890,287.106 340.676,287.119 341.287 C 287.124 341.559,287.307 341.782,287.525 341.782 C 287.743 341.782,287.921 341.939,287.921 342.130 C 287.921 342.321,288.221 343.168,288.588 344.011 C 288.956 344.854,289.223 345.678,289.182 345.842 C 289.142 346.005,289.248 346.139,289.418 346.139 C 289.588 346.139,290.072 347.030,290.495 348.119 C 290.918 349.208,291.402 350.099,291.572 350.099 C 291.742 350.099,291.881 350.296,291.881 350.537 C 291.881 350.777,292.301 351.809,292.813 352.829 C 293.326 353.850,293.963 355.346,294.230 356.154 C 294.497 356.962,294.879 357.624,295.080 357.624 C 295.632 357.624,295.518 359.004,294.862 360.265 C 294.255 361.430,293.666 362.830,292.418 366.064 C 291.455 368.562,288.698 371.378,286.882 371.718 C 284.835 372.102,281.742 371.700,280.995 370.952 C 280.634 370.592,280.079 370.297,279.761 370.297 C 279.443 370.297,279.081 370.031,278.956 369.705 C 278.831 369.380,278.588 369.201,278.416 369.307 C 278.244 369.413,278.001 369.234,277.876 368.909 C 277.608 368.212,276.436 368.107,276.436 368.779 C 276.436 369.033,276.320 369.126,276.180 368.985 C 276.039 368.844,275.512 369.616,275.010 370.701 C 274.507 371.786,273.909 372.673,273.682 372.673 C 273.454 372.673,273.296 372.807,273.331 372.970 C 273.444 373.492,272.579 375.263,271.961 375.775 C 271.633 376.047,271.255 376.708,271.120 377.244 C 270.986 377.780,270.691 378.218,270.464 378.218 C 270.238 378.218,270.162 378.396,270.297 378.614 C 270.432 378.832,270.353 379.010,270.122 379.010 C 268.791 379.010,270.209 380.808,272.457 381.971 C 273.120 382.314,273.663 382.739,273.663 382.914 C 273.663 383.090,273.886 383.236,274.158 383.238 C 274.431 383.240,275.645 383.712,276.857 384.287 C 286.414 388.827,299.803 384.232,304.233 374.892 C 304.657 373.999,305.250 372.822,305.550 372.277 C 306.610 370.358,307.710 367.689,307.962 366.426 C 308.103 365.723,308.393 365.149,308.607 365.149 C 308.821 365.149,308.893 364.881,308.768 364.554 C 308.642 364.228,308.698 363.960,308.892 363.960 C 309.086 363.960,309.365 363.381,309.512 362.673 C 309.660 361.965,310.004 361.030,310.276 360.594 C 310.772 359.801,311.755 357.120,311.932 356.079 C 311.984 355.774,312.195 355.418,312.401 355.287 C 312.606 355.156,313.103 353.980,313.505 352.673 C 313.907 351.366,314.355 350.208,314.500 350.099 C 314.645 349.990,314.993 349.099,315.272 348.119 C 315.552 347.139,315.990 346.069,316.246 345.743 C 316.502 345.416,316.940 344.302,317.219 343.267 C 317.498 342.233,317.853 341.386,318.008 341.386 C 318.162 341.386,318.620 340.228,319.025 338.812 C 319.430 337.396,319.875 336.238,320.015 336.238 C 320.155 336.238,320.600 335.079,321.005 333.663 C 321.410 332.248,321.856 331.089,321.996 331.089 C 322.240 331.089,323.342 327.850,323.182 327.603 C 323.139 327.537,323.357 327.091,323.667 326.613 C 323.976 326.134,324.547 324.851,324.935 323.762 C 325.324 322.673,325.976 321.027,326.385 320.103 C 326.794 319.180,327.129 318.166,327.129 317.849 C 327.129 317.533,327.300 317.169,327.509 317.040 C 327.718 316.910,328.203 315.786,328.587 314.541 C 328.971 313.296,329.394 312.188,329.527 312.079 C 329.659 311.970,330.108 310.901,330.524 309.703 C 330.940 308.505,331.378 307.436,331.497 307.327 C 331.616 307.218,332.063 306.015,332.490 304.653 C 332.918 303.292,333.384 302.178,333.527 302.178 C 333.670 302.178,333.706 301.866,333.607 301.485 C 333.440 300.846,332.809 300.807,325.439 300.990 L 317.453 301.188 316.836 303.168 C 316.498 304.257,316.001 305.538,315.734 306.014 C 315.466 306.489,315.246 307.113,315.245 307.400 C 315.244 307.686,314.984 308.417,314.668 309.022 C 314.352 309.628,313.795 311.188,313.430 312.488 C 313.065 313.788,312.604 314.851,312.406 314.851 C 312.207 314.851,312.089 315.074,312.143 315.347 C 312.250 315.886,310.969 319.953,310.490 320.594 C 310.328 320.812,309.892 322.059,309.522 323.366 C 309.152 324.673,308.622 326.099,308.346 326.535 C 308.069 326.970,307.725 327.950,307.582 328.713 C 307.439 329.475,307.059 330.604,306.737 331.221 C 306.415 331.838,305.954 333.086,305.713 333.993 C 305.472 334.901,305.045 336.178,304.763 336.832 C 304.482 337.485,304.028 338.606,303.754 339.323 L 303.257 340.627 301.977 337.937 C 301.273 336.458,300.382 334.401,299.997 333.366 C 299.613 332.332,299.144 331.485,298.956 331.485 C 298.768 331.485,298.614 331.276,298.614 331.021 C 298.614 330.543,296.795 326.467,295.428 323.882 C 295.002 323.076,294.653 322.165,294.653 321.856 C 294.653 321.547,294.330 320.870,293.935 320.350 C 293.540 319.831,292.888 318.515,292.485 317.426 C 292.083 316.337,291.535 315.089,291.267 314.653 C 291.000 314.218,290.569 313.193,290.310 312.376 C 290.051 311.559,289.675 310.891,289.474 310.891 C 289.273 310.891,289.109 310.666,289.109 310.390 C 289.109 310.115,288.566 308.733,287.902 307.321 C 287.239 305.908,286.303 303.914,285.823 302.890 L 284.950 301.027 276.927 300.910 C 272.514 300.845,268.741 300.847,268.542 300.914 M176.912 314.420 C 177.827 314.875,178.732 315.248,178.922 315.248 C 179.510 315.248,183.005 318.645,182.715 318.935 C 182.565 319.085,182.643 319.208,182.888 319.208 C 183.134 319.208,183.548 319.921,183.809 320.792 C 184.070 321.663,184.434 322.376,184.617 322.376 C 184.800 322.376,184.950 322.733,184.950 323.168 C 184.950 323.945,184.686 323.960,171.683 323.960 C 164.386 323.960,158.416 323.815,158.416 323.636 C 158.416 319.757,162.173 315.704,167.723 313.597 C 169.262 313.012,175.141 313.538,176.912 314.420 M367.739 314.521 C 369.785 315.481,370.526 315.995,372.018 317.487 C 373.474 318.944,373.823 319.495,374.343 321.160 C 374.620 322.047,374.981 322.772,375.146 322.772 C 375.311 322.772,375.446 323.040,375.446 323.366 C 375.446 323.883,373.707 323.960,362.178 323.960 C 351.825 323.960,348.912 323.852,348.917 323.465 C 349.005 316.175,360.066 310.919,367.739 314.521 M53.933 322.825 C 55.082 323.071,56.691 323.695,57.509 324.211 C 58.326 324.726,59.095 325.149,59.219 325.149 C 59.841 325.149,61.447 327.555,61.976 329.280 C 63.674 334.821,61.372 340.297,56.706 341.818 C 55.904 342.079,55.120 342.490,54.965 342.731 C 54.776 343.024,51.481 343.214,44.965 343.308 L 35.248 343.448 35.248 332.912 L 35.248 322.376 43.545 322.376 C 48.226 322.376,52.753 322.572,53.933 322.825 M242.997 322.809 C 244.289 323.047,245.569 323.425,245.842 323.649 C 246.114 323.874,246.337 323.939,246.337 323.795 C 246.337 323.532,246.920 323.955,248.345 325.248 C 248.765 325.629,249.275 325.941,249.478 325.941 C 249.681 325.941,249.972 326.342,250.124 326.832 C 250.276 327.322,250.734 328.196,251.141 328.774 C 253.821 332.581,250.741 340.137,245.816 341.839 C 244.686 342.229,243.941 342.577,244.158 342.611 C 245.993 342.900,239.407 343.313,232.574 343.337 L 224.158 343.366 224.158 332.871 L 224.158 322.376 232.403 322.376 C 236.937 322.376,241.704 322.571,242.997 322.809 " stroke="none" fill="#049cd4" fill-rule="evenodd"></path><path id="path2" d="" stroke="none" fill="#68807c" fill-rule="evenodd"></path><path id="path3" d="" stroke="none" fill="#3880b8" fill-rule="evenodd"></path><path id="path4" d="M82.475 300.889 C 84.599 300.961,88.074 300.961,90.198 300.889 C 92.322 300.818,90.584 300.760,86.337 300.760 C 82.089 300.760,80.351 300.818,82.475 300.889 M131.188 300.889 C 133.312 300.961,136.787 300.961,138.911 300.889 C 141.035 300.818,139.297 300.760,135.050 300.760 C 130.802 300.760,129.064 300.818,131.188 300.889 M272.970 300.889 C 275.094 300.961,278.569 300.961,280.693 300.889 C 282.817 300.818,281.079 300.760,276.832 300.760 C 272.584 300.760,270.847 300.818,272.970 300.889 M321.683 300.889 C 323.807 300.961,327.282 300.961,329.406 300.889 C 331.530 300.818,329.792 300.760,325.545 300.760 C 321.297 300.760,319.559 300.818,321.683 300.889 " stroke="none" fill="#04a0b8" fill-rule="evenodd"></path></g></svg>