<svg id="svg" version="1.1" xmlns="http://www.w3.org/2000/svg" xmlns:xlink="http://www.w3.org/1999/xlink" width="400" height="400" viewBox="0, 0, 400,400"><g id="svgg"><path id="path0" d="M108.400 18.000 C 108.400 18.233,107.075 18.400,105.224 18.400 C 103.477 18.400,101.950 18.557,101.832 18.748 C 101.714 18.939,99.813 19.224,97.609 19.380 C 95.404 19.536,93.600 19.830,93.600 20.032 C 93.600 20.234,93.071 20.400,92.424 20.400 C 91.777 20.400,91.147 20.562,91.025 20.759 C 90.903 20.957,89.542 21.245,88.002 21.400 C 86.461 21.555,85.200 21.843,85.200 22.041 C 85.200 22.238,84.750 22.400,84.200 22.400 C 83.650 22.400,83.200 22.563,83.200 22.762 C 83.200 22.962,82.300 23.249,81.200 23.400 C 80.100 23.551,79.200 23.838,79.200 24.038 C 79.200 24.237,78.750 24.400,78.200 24.400 C 77.650 24.400,77.200 24.580,77.200 24.800 C 77.200 25.020,76.795 25.201,76.300 25.202 C 75.805 25.204,74.884 25.474,74.254 25.802 C 73.624 26.131,72.859 26.400,72.554 26.400 C 72.249 26.400,72.000 26.560,72.000 26.755 C 72.000 26.951,71.348 27.233,70.551 27.383 C 69.227 27.631,67.702 28.281,67.200 28.811 C 67.090 28.927,66.190 29.372,65.200 29.800 C 64.210 30.228,63.310 30.673,63.200 30.789 C 62.951 31.052,58.848 33.029,57.900 33.343 C 57.515 33.471,57.200 33.761,57.200 33.987 C 57.200 34.214,56.840 34.400,56.400 34.400 C 55.960 34.400,55.600 34.577,55.600 34.792 C 55.600 35.008,55.150 35.298,54.600 35.436 C 54.050 35.574,53.600 35.847,53.600 36.043 C 53.600 36.240,53.330 36.400,53.000 36.400 C 52.670 36.400,52.400 36.580,52.400 36.800 C 52.400 37.020,52.158 37.200,51.862 37.200 C 51.566 37.200,50.801 37.651,50.162 38.202 C 49.523 38.754,48.664 39.313,48.252 39.444 C 47.841 39.576,46.959 40.205,46.293 40.842 C 45.627 41.479,44.956 42.000,44.802 42.000 C 44.648 42.000,44.107 42.360,43.600 42.800 C 43.093 43.240,42.447 43.600,42.166 43.600 C 41.884 43.600,41.543 43.951,41.406 44.380 C 41.270 44.808,40.768 45.283,40.290 45.435 C 39.812 45.587,38.658 46.496,37.725 47.455 C 36.793 48.415,35.862 49.200,35.657 49.200 C 35.113 49.200,21.200 63.200,21.200 63.747 C 21.200 64.002,20.750 64.548,20.200 64.961 C 19.650 65.374,19.200 65.947,19.200 66.233 C 19.200 66.520,18.882 66.990,18.493 67.277 C 18.104 67.565,17.441 68.340,17.020 69.000 C 16.598 69.660,16.016 70.438,15.727 70.729 C 15.437 71.019,15.200 71.475,15.200 71.740 C 15.200 72.006,14.847 72.478,14.415 72.789 C 13.983 73.101,13.519 73.860,13.383 74.478 C 13.247 75.095,12.971 75.600,12.768 75.600 C 12.566 75.600,12.400 75.945,12.400 76.367 C 12.400 76.788,12.197 77.201,11.949 77.284 C 11.367 77.478,11.001 84.216,11.380 87.754 C 11.537 89.213,11.830 90.305,12.032 90.180 C 12.235 90.055,12.400 90.323,12.400 90.776 C 12.400 91.229,12.560 91.600,12.757 91.600 C 12.953 91.600,13.226 92.050,13.364 92.600 C 13.502 93.150,13.792 93.600,14.008 93.600 C 14.223 93.600,14.400 93.786,14.400 94.013 C 14.400 94.481,16.668 96.800,17.125 96.800 C 17.289 96.800,17.682 97.159,17.999 97.598 C 18.315 98.037,19.165 98.507,19.887 98.643 C 20.609 98.778,21.200 99.049,21.200 99.245 C 21.200 99.440,21.729 99.600,22.376 99.600 C 23.023 99.600,23.664 99.780,23.800 100.000 C 24.127 100.529,31.600 100.529,31.600 100.000 C 31.600 99.780,32.050 99.600,32.600 99.600 C 33.150 99.600,33.600 99.434,33.600 99.232 C 33.600 99.029,34.160 98.741,34.844 98.590 C 36.776 98.166,40.902 94.409,42.147 91.939 C 42.996 90.256,43.635 89.253,44.400 88.405 C 45.535 87.147,46.800 85.426,46.800 85.140 C 46.800 84.983,47.134 84.748,47.543 84.618 C 47.951 84.488,48.446 84.023,48.643 83.584 C 49.132 82.489,55.246 76.400,55.855 76.400 C 56.125 76.400,56.457 76.049,56.594 75.620 C 56.730 75.192,57.183 74.733,57.600 74.600 C 58.017 74.467,58.470 74.008,58.606 73.580 C 58.743 73.151,59.022 72.777,59.227 72.750 C 59.432 72.723,59.743 72.677,59.918 72.650 C 60.093 72.623,60.731 72.105,61.336 71.500 C 61.941 70.895,62.563 70.400,62.718 70.400 C 62.873 70.399,63.523 69.949,64.162 69.400 C 64.801 68.850,65.554 68.400,65.835 68.400 C 66.116 68.400,66.460 68.040,66.600 67.600 C 66.740 67.158,67.205 66.800,67.640 66.800 C 68.072 66.800,68.529 66.530,68.655 66.200 C 68.782 65.870,69.226 65.600,69.643 65.600 C 70.059 65.600,70.400 65.461,70.400 65.291 C 70.400 65.121,71.075 64.628,71.900 64.195 C 72.725 63.762,73.490 63.316,73.600 63.204 C 73.710 63.092,74.475 62.657,75.300 62.237 C 76.125 61.817,76.800 61.342,76.800 61.182 C 76.800 61.021,77.430 60.771,78.200 60.626 C 78.970 60.482,79.600 60.192,79.600 59.982 C 79.600 59.772,79.870 59.600,80.200 59.600 C 80.530 59.600,80.800 59.420,80.800 59.200 C 80.800 58.980,81.159 58.800,81.597 58.800 C 82.536 58.800,85.600 57.532,85.600 57.143 C 85.600 56.996,86.500 56.751,87.600 56.600 C 88.700 56.449,89.600 56.162,89.600 55.962 C 89.600 55.763,89.949 55.600,90.376 55.600 C 90.803 55.600,91.261 55.425,91.393 55.212 C 91.525 54.998,92.525 54.705,93.616 54.560 C 94.707 54.415,95.600 54.140,95.600 53.948 C 95.600 53.757,96.230 53.600,97.000 53.600 C 97.770 53.600,98.400 53.432,98.400 53.227 C 98.400 53.023,99.840 52.729,101.600 52.576 C 103.360 52.422,104.800 52.140,104.800 51.948 C 104.800 51.757,106.049 51.600,107.576 51.600 C 109.103 51.600,110.464 51.420,110.600 51.200 C 110.938 50.653,133.200 50.653,133.200 51.200 C 133.200 51.440,134.800 51.600,137.200 51.600 C 139.400 51.600,141.200 51.760,141.200 51.956 C 141.200 52.152,143.179 52.442,145.597 52.600 C 148.015 52.758,149.894 53.047,149.773 53.244 C 149.652 53.440,150.373 53.600,151.376 53.600 C 152.379 53.600,153.200 53.766,153.200 53.968 C 153.200 54.171,154.370 54.462,155.800 54.615 C 157.230 54.768,158.400 55.052,158.400 55.247 C 158.400 55.441,158.839 55.600,159.376 55.600 C 159.913 55.600,160.458 55.770,160.586 55.977 C 160.714 56.184,161.624 56.475,162.609 56.622 C 163.594 56.770,164.400 57.050,164.400 57.245 C 164.400 57.440,164.771 57.600,165.224 57.600 C 165.684 57.600,165.936 57.781,165.794 58.010 C 165.655 58.235,165.689 58.385,165.870 58.343 C 166.547 58.184,169.200 58.902,169.200 59.245 C 169.200 59.440,169.470 59.600,169.800 59.600 C 170.130 59.600,170.400 59.772,170.400 59.982 C 170.400 60.192,171.030 60.482,171.800 60.626 C 172.570 60.771,173.200 61.009,173.200 61.155 C 173.200 61.301,173.994 61.774,174.964 62.206 C 175.935 62.638,176.664 63.096,176.586 63.223 C 176.507 63.350,177.239 63.782,178.211 64.183 C 179.183 64.584,179.883 65.066,179.766 65.256 C 179.649 65.445,179.904 65.600,180.334 65.600 C 180.763 65.600,181.218 65.870,181.345 66.200 C 181.471 66.530,181.861 66.800,182.211 66.800 C 182.561 66.800,182.736 66.980,182.600 67.200 C 182.464 67.420,182.590 67.600,182.880 67.600 C 183.171 67.600,183.893 68.050,184.487 68.600 C 185.080 69.150,185.677 69.600,185.814 69.600 C 185.951 69.600,186.776 70.320,187.647 71.200 C 188.518 72.080,189.403 72.800,189.614 72.800 C 189.825 72.800,192.231 75.050,194.961 77.800 C 197.691 80.550,200.152 82.800,200.429 82.800 C 200.706 82.800,200.814 82.919,200.669 83.064 C 200.404 83.329,201.589 84.166,202.900 84.640 C 203.285 84.779,203.600 85.052,203.600 85.247 C 203.600 85.441,204.035 85.600,204.567 85.600 C 205.098 85.600,205.609 85.825,205.700 86.100 C 205.940 86.816,217.262 86.815,217.500 86.099 C 217.592 85.825,217.922 85.600,218.233 85.600 C 218.545 85.600,218.800 85.437,218.800 85.238 C 218.800 85.038,219.700 84.751,220.800 84.600 C 221.901 84.449,222.700 84.162,222.577 83.962 C 222.454 83.763,222.903 83.600,223.576 83.600 C 224.249 83.600,224.800 83.437,224.800 83.238 C 224.800 83.038,225.700 82.751,226.800 82.600 C 227.900 82.449,228.800 82.162,228.800 81.962 C 228.800 81.763,229.430 81.600,230.200 81.600 C 230.970 81.600,231.600 81.441,231.600 81.247 C 231.600 81.053,232.949 80.768,234.597 80.613 C 236.246 80.459,237.696 80.167,237.821 79.966 C 237.945 79.765,239.012 79.600,240.190 79.600 C 241.549 79.600,242.394 79.417,242.500 79.100 C 242.739 78.382,266.864 78.391,267.103 79.109 C 267.203 79.408,268.035 79.600,269.233 79.600 C 270.315 79.600,271.200 79.769,271.200 79.976 C 271.200 80.182,272.456 80.475,273.992 80.627 C 275.528 80.778,276.687 81.059,276.569 81.251 C 276.450 81.443,276.993 81.600,277.776 81.600 C 278.559 81.600,279.200 81.763,279.200 81.962 C 279.200 82.162,280.100 82.449,281.200 82.600 C 282.300 82.751,283.200 83.038,283.200 83.238 C 283.200 83.437,283.470 83.600,283.800 83.600 C 284.130 83.600,284.400 83.757,284.400 83.949 C 284.400 84.141,285.120 84.413,286.000 84.554 C 286.880 84.694,287.600 84.987,287.600 85.205 C 287.600 85.422,288.050 85.600,288.600 85.600 C 289.150 85.600,289.600 85.760,289.600 85.955 C 289.600 86.151,290.230 86.429,291.000 86.574 C 291.770 86.718,292.400 87.008,292.400 87.218 C 292.400 87.428,292.715 87.606,293.100 87.613 C 293.485 87.620,294.149 87.890,294.576 88.213 C 295.004 88.536,295.689 88.800,296.100 88.800 C 296.511 88.800,296.736 88.980,296.600 89.200 C 296.464 89.420,296.633 89.600,296.976 89.600 C 297.319 89.600,297.600 89.780,297.600 90.000 C 297.600 90.220,297.735 90.370,297.900 90.334 C 298.497 90.204,300.400 90.895,300.400 91.243 C 300.400 91.440,300.670 91.600,301.000 91.600 C 301.330 91.600,301.600 91.777,301.600 91.992 C 301.600 92.208,302.050 92.498,302.600 92.636 C 303.150 92.774,303.600 93.008,303.600 93.157 C 303.600 93.306,304.185 93.768,304.900 94.183 C 305.615 94.599,306.596 95.357,307.081 95.869 C 307.565 96.381,308.134 96.800,308.344 96.800 C 308.555 96.800,309.778 97.881,311.063 99.202 C 314.172 102.397,314.618 102.928,314.500 103.292 C 314.445 103.461,314.568 103.600,314.773 103.600 C 314.978 103.600,315.274 104.005,315.430 104.500 C 315.587 104.995,316.023 105.670,316.400 106.000 C 316.777 106.330,317.226 107.050,317.397 107.600 C 317.568 108.150,317.828 108.690,317.975 108.800 C 318.474 109.174,319.600 111.918,319.600 112.760 C 319.600 113.222,319.780 113.600,320.000 113.600 C 320.220 113.600,320.400 114.035,320.400 114.567 C 320.400 115.098,320.578 115.593,320.796 115.667 C 321.014 115.740,321.310 116.925,321.453 118.300 C 321.597 119.675,321.868 120.800,322.057 120.800 C 322.246 120.800,322.400 121.484,322.400 122.320 C 322.400 123.156,322.570 124.011,322.777 124.220 C 322.984 124.429,323.280 126.895,323.435 129.700 C 323.590 132.505,323.871 134.800,324.058 134.800 C 324.246 134.800,324.400 135.509,324.400 136.376 C 324.400 137.243,324.557 138.050,324.748 138.168 C 325.047 138.353,325.614 140.344,325.564 141.032 C 325.555 141.158,325.919 141.583,326.374 141.977 C 326.828 142.371,327.201 142.853,327.203 143.047 C 327.207 143.569,330.592 146.800,331.134 146.800 C 331.390 146.800,331.600 146.980,331.600 147.200 C 331.600 147.420,331.960 147.600,332.400 147.600 C 332.840 147.600,333.200 147.772,333.200 147.982 C 333.200 148.192,333.828 148.482,334.596 148.626 C 335.365 148.770,335.894 149.048,335.773 149.244 C 335.652 149.440,335.819 149.600,336.144 149.600 C 336.830 149.600,339.337 150.857,339.533 151.300 C 339.607 151.465,339.992 151.600,340.391 151.600 C 340.789 151.600,341.218 151.870,341.345 152.200 C 341.471 152.530,341.941 152.800,342.387 152.800 C 342.834 152.800,343.200 152.980,343.200 153.200 C 343.200 153.420,343.404 153.600,343.654 153.600 C 343.904 153.600,344.525 154.050,345.035 154.600 C 345.545 155.150,346.159 155.600,346.400 155.600 C 346.641 155.600,347.255 156.050,347.765 156.600 C 348.275 157.150,348.896 157.600,349.146 157.600 C 349.396 157.600,349.600 157.870,349.600 158.200 C 349.600 158.531,349.955 158.800,350.392 158.800 C 350.904 158.800,351.274 159.154,351.436 159.800 C 351.574 160.350,351.967 160.800,352.310 160.800 C 352.653 160.800,352.816 160.917,352.673 161.060 C 352.530 161.203,352.860 161.735,353.407 162.241 C 353.953 162.747,354.400 163.350,354.400 163.581 C 354.400 163.811,354.767 164.367,355.215 164.815 C 355.663 165.263,355.905 165.830,355.753 166.076 C 355.585 166.348,355.657 166.412,355.938 166.238 C 356.351 165.983,356.580 166.461,356.447 167.300 C 356.421 167.465,356.580 167.600,356.800 167.600 C 357.020 167.600,357.200 167.798,357.200 168.040 C 357.200 168.451,357.877 170.132,358.941 172.363 C 359.614 173.775,359.578 192.183,358.900 192.860 C 358.625 193.135,358.400 193.774,358.400 194.280 C 358.400 194.786,358.243 195.200,358.052 195.200 C 357.860 195.200,357.585 196.093,357.440 197.184 C 357.295 198.275,357.002 199.275,356.788 199.407 C 356.575 199.539,356.400 199.997,356.400 200.424 C 356.400 200.851,356.240 201.200,356.043 201.200 C 355.847 201.200,355.582 201.605,355.454 202.100 C 355.326 202.595,354.766 203.523,354.210 204.162 C 353.655 204.801,353.200 205.476,353.200 205.662 C 353.200 206.102,350.102 209.200,349.662 209.200 C 349.476 209.200,348.801 209.650,348.162 210.200 C 347.523 210.749,346.802 211.199,346.560 211.200 C 346.317 211.200,345.282 211.645,344.259 212.189 C 343.145 212.781,341.357 213.285,339.800 213.444 C 338.370 213.591,337.200 213.866,337.200 214.055 C 337.200 214.245,336.480 214.400,335.600 214.400 C 334.720 214.400,334.000 214.580,334.000 214.800 C 334.000 215.020,333.454 215.200,332.787 215.200 C 332.079 215.200,331.479 215.449,331.345 215.800 C 331.218 216.130,330.864 216.400,330.557 216.400 C 330.251 216.400,329.633 216.767,329.185 217.215 C 328.737 217.663,328.170 217.905,327.924 217.753 C 327.678 217.601,327.579 217.643,327.705 217.846 C 327.831 218.050,327.319 218.908,326.567 219.752 C 325.815 220.597,325.200 221.538,325.200 221.844 C 325.200 222.150,325.062 222.400,324.894 222.400 C 324.296 222.400,323.200 225.635,323.200 227.403 C 323.200 228.391,323.020 229.200,322.800 229.200 C 322.292 229.200,322.278 231.388,322.780 232.305 C 322.990 232.687,323.273 234.035,323.409 235.300 C 323.546 236.565,323.825 237.600,324.029 237.600 C 324.233 237.600,324.400 237.870,324.400 238.200 C 324.400 238.530,324.568 238.800,324.773 238.800 C 324.978 238.800,325.268 239.184,325.417 239.653 C 325.787 240.820,329.762 244.800,330.557 244.800 C 330.911 244.800,331.200 244.936,331.200 245.102 C 331.200 246.515,346.328 247.432,347.660 246.100 C 347.935 245.825,348.754 245.600,349.480 245.600 C 350.206 245.600,350.800 245.437,350.800 245.238 C 350.800 245.038,351.700 244.751,352.800 244.600 C 353.900 244.449,354.800 244.162,354.800 243.962 C 354.800 243.763,355.250 243.600,355.800 243.600 C 356.350 243.600,356.800 243.420,356.800 243.200 C 356.800 242.980,357.101 242.800,357.470 242.800 C 358.387 242.800,364.800 239.620,364.800 239.166 C 364.800 238.965,365.166 238.800,365.613 238.800 C 366.059 238.800,366.529 238.530,366.655 238.200 C 366.782 237.870,367.136 237.600,367.443 237.600 C 367.749 237.600,368.323 237.285,368.717 236.900 C 369.112 236.515,369.946 235.840,370.571 235.400 C 371.196 234.960,372.184 234.150,372.765 233.600 C 373.347 233.050,373.998 232.510,374.211 232.400 C 374.425 232.290,374.581 232.110,374.557 232.000 C 374.507 231.765,375.908 230.400,376.200 230.400 C 376.310 230.400,376.445 230.270,376.500 230.111 C 376.555 229.953,377.050 229.347,377.600 228.765 C 378.150 228.184,378.960 227.193,379.400 226.564 C 379.840 225.936,380.699 224.923,381.309 224.315 C 381.919 223.707,382.527 222.667,382.659 222.005 C 382.792 221.342,383.032 220.800,383.193 220.800 C 383.466 220.800,384.963 218.184,386.283 215.400 C 386.595 214.740,387.020 213.887,387.226 213.505 C 387.432 213.123,387.600 212.538,387.600 212.205 C 387.600 211.872,387.763 211.600,387.962 211.600 C 388.162 211.600,388.449 210.700,388.600 209.600 C 388.751 208.500,389.038 207.600,389.238 207.600 C 389.437 207.600,389.600 207.150,389.600 206.600 C 389.600 206.050,389.759 205.600,389.953 205.600 C 390.148 205.600,390.432 204.430,390.585 203.000 C 390.738 201.570,391.029 200.400,391.232 200.400 C 391.434 200.400,391.600 199.605,391.600 198.633 C 391.600 197.576,391.801 196.800,392.100 196.700 C 392.487 196.571,392.600 193.369,392.600 182.487 C 392.600 171.783,392.481 168.322,392.100 167.940 C 391.825 167.665,391.600 166.756,391.600 165.920 C 391.600 165.084,391.443 164.400,391.252 164.400 C 390.965 164.400,390.599 162.724,390.319 160.118 C 390.290 159.852,390.117 159.728,389.933 159.841 C 389.750 159.955,389.600 159.497,389.600 158.824 C 389.600 158.151,389.422 157.600,389.205 157.600 C 388.987 157.600,388.694 156.880,388.554 156.000 C 388.413 155.120,388.141 154.400,387.949 154.400 C 387.757 154.400,387.600 154.130,387.600 153.800 C 387.600 153.470,387.440 153.200,387.245 153.200 C 387.049 153.200,386.771 152.570,386.626 151.800 C 386.482 151.030,386.192 150.400,385.982 150.400 C 385.772 150.400,385.600 150.130,385.600 149.800 C 385.600 149.470,385.423 149.200,385.208 149.200 C 384.992 149.200,384.702 148.750,384.564 148.200 C 384.426 147.650,384.153 147.200,383.957 147.200 C 383.760 147.200,383.600 146.921,383.600 146.581 C 383.600 146.240,383.150 145.545,382.600 145.035 C 382.050 144.525,381.600 143.981,381.600 143.826 C 381.600 143.670,381.375 143.292,381.100 142.985 C 379.904 141.652,379.600 141.207,379.600 140.793 C 379.600 140.551,379.420 140.464,379.200 140.600 C 378.980 140.736,378.800 140.639,378.800 140.384 C 378.800 139.909,369.107 130.113,368.867 130.345 C 368.794 130.416,368.211 130.007,367.571 129.437 C 366.931 128.867,366.291 128.400,366.149 128.400 C 366.008 128.400,365.475 127.950,364.965 127.400 C 364.455 126.850,363.760 126.400,363.419 126.400 C 363.079 126.400,362.800 126.240,362.800 126.043 C 362.800 125.847,362.350 125.574,361.800 125.436 C 361.250 125.298,360.800 125.008,360.800 124.792 C 360.800 124.577,360.530 124.400,360.200 124.400 C 359.870 124.400,359.600 124.223,359.600 124.008 C 359.600 123.792,359.150 123.502,358.600 123.364 C 358.050 123.226,357.600 122.953,357.600 122.757 C 357.600 122.560,357.330 122.400,357.000 122.400 C 356.627 122.400,356.400 122.022,356.400 121.400 C 356.400 120.850,356.220 120.400,356.000 120.400 C 355.780 120.400,355.600 119.489,355.600 118.376 C 355.600 117.263,355.445 116.448,355.256 116.565 C 355.067 116.682,354.792 115.481,354.645 113.897 C 354.498 112.313,354.203 110.843,353.989 110.629 C 353.775 110.415,353.600 109.646,353.600 108.920 C 353.600 108.194,353.443 107.600,353.252 107.600 C 353.060 107.600,352.785 106.707,352.640 105.616 C 352.495 104.525,352.202 103.525,351.988 103.393 C 351.775 103.261,351.600 102.713,351.600 102.176 C 351.600 101.639,351.440 101.200,351.245 101.200 C 350.913 101.200,350.184 98.563,350.333 97.900 C 350.370 97.735,350.220 97.600,350.000 97.600 C 349.780 97.600,349.600 97.330,349.600 97.000 C 349.600 96.670,349.420 96.400,349.200 96.400 C 348.980 96.400,348.800 96.221,348.800 96.003 C 348.800 95.320,347.427 92.400,347.106 92.400 C 346.938 92.400,346.794 92.175,346.786 91.900 C 346.769 91.276,345.232 88.051,345.213 88.600 C 345.206 88.820,344.821 88.235,344.358 87.300 C 343.895 86.365,343.375 85.600,343.202 85.600 C 343.028 85.600,342.774 85.150,342.636 84.600 C 342.498 84.050,342.208 83.600,341.992 83.600 C 341.777 83.600,341.600 83.319,341.600 82.976 C 341.600 82.633,341.420 82.464,341.200 82.600 C 340.980 82.736,340.800 82.592,340.800 82.280 C 340.800 81.967,340.350 81.374,339.800 80.961 C 339.250 80.548,338.800 80.003,338.800 79.749 C 338.800 79.202,332.096 72.400,331.557 72.400 C 331.353 72.400,330.574 71.770,329.826 71.000 C 329.079 70.230,328.273 69.600,328.036 69.600 C 327.800 69.600,327.125 69.060,326.537 68.400 C 325.949 67.740,325.267 67.200,325.022 67.200 C 324.777 67.200,324.317 66.840,324.000 66.400 C 323.683 65.960,323.206 65.600,322.940 65.600 C 322.675 65.600,322.174 65.317,321.829 64.971 C 321.483 64.626,321.200 64.468,321.200 64.620 C 321.200 64.773,320.911 64.658,320.557 64.365 C 319.719 63.669,318.378 62.877,317.500 62.560 C 317.115 62.421,316.800 62.162,316.800 61.985 C 316.800 61.808,316.295 61.553,315.678 61.417 C 315.060 61.281,314.301 60.817,313.989 60.385 C 313.678 59.953,313.026 59.600,312.540 59.600 C 312.055 59.600,311.387 59.330,311.057 59.000 C 310.727 58.670,310.264 58.400,310.029 58.400 C 309.793 58.400,309.600 58.243,309.600 58.051 C 309.600 57.859,308.880 57.587,308.000 57.446 C 307.120 57.306,306.400 57.013,306.400 56.795 C 306.400 56.578,306.040 56.400,305.600 56.400 C 305.160 56.400,304.800 56.234,304.800 56.032 C 304.800 55.829,304.260 55.545,303.600 55.400 C 302.940 55.255,302.400 54.971,302.400 54.768 C 302.400 54.566,302.061 54.400,301.646 54.400 C 301.231 54.400,300.376 54.131,299.746 53.802 C 299.116 53.474,298.195 53.204,297.700 53.202 C 297.205 53.201,296.800 53.020,296.800 52.800 C 296.800 52.580,296.530 52.400,296.200 52.400 C 295.870 52.400,295.600 52.237,295.600 52.038 C 295.600 51.838,294.700 51.551,293.600 51.400 C 292.500 51.249,291.600 51.000,291.600 50.848 C 291.600 50.695,291.211 50.541,290.736 50.505 C 290.261 50.469,289.766 50.273,289.636 50.068 C 289.506 49.864,288.275 49.567,286.899 49.409 C 285.524 49.251,284.298 48.959,284.176 48.761 C 284.053 48.562,283.423 48.400,282.776 48.400 C 282.129 48.400,281.600 48.236,281.600 48.036 C 281.600 47.836,280.070 47.544,278.200 47.389 C 276.330 47.233,274.800 46.947,274.800 46.753 C 274.800 46.559,273.709 46.400,272.376 46.400 C 271.043 46.400,270.052 46.240,270.173 46.044 C 270.775 45.070,241.364 45.056,239.546 46.029 C 239.165 46.233,237.851 46.400,236.626 46.400 C 235.402 46.400,234.400 46.557,234.400 46.748 C 234.400 46.940,232.780 47.224,230.800 47.378 C 228.820 47.533,227.200 47.827,227.200 48.030 C 227.200 48.234,226.491 48.400,225.624 48.400 C 224.757 48.400,223.949 48.559,223.829 48.753 C 223.709 48.948,222.618 49.230,221.405 49.382 C 220.192 49.534,219.200 49.825,219.200 50.029 C 219.200 50.233,218.838 50.400,218.395 50.400 C 217.952 50.400,217.208 50.625,216.742 50.900 C 216.064 51.300,215.859 51.300,215.714 50.898 C 215.614 50.621,215.367 50.497,215.166 50.621 C 214.965 50.745,214.800 50.567,214.800 50.224 C 214.800 49.881,214.542 49.600,214.226 49.600 C 213.910 49.600,212.697 48.610,211.529 47.400 C 210.361 46.190,209.254 45.200,209.069 45.200 C 208.884 45.200,208.121 44.570,207.374 43.800 C 206.626 43.030,205.822 42.400,205.588 42.400 C 205.354 42.400,204.745 41.950,204.235 41.400 C 203.725 40.850,203.147 40.400,202.950 40.400 C 202.753 40.400,202.107 39.950,201.513 39.400 C 200.920 38.850,200.247 38.400,200.017 38.400 C 199.788 38.400,199.600 38.232,199.600 38.027 C 199.600 37.822,199.195 37.526,198.700 37.370 C 198.205 37.213,197.530 36.777,197.200 36.400 C 196.870 36.023,196.150 35.573,195.600 35.400 C 195.050 35.227,194.285 34.724,193.900 34.282 C 193.515 33.839,193.200 33.631,193.200 33.819 C 193.200 34.006,192.984 33.944,192.720 33.680 C 192.456 33.416,191.916 33.200,191.520 33.200 C 191.124 33.200,190.800 33.020,190.800 32.800 C 190.800 32.580,190.530 32.400,190.200 32.400 C 189.870 32.400,189.600 32.223,189.600 32.008 C 189.600 31.792,189.150 31.502,188.600 31.364 C 188.050 31.226,187.600 30.953,187.600 30.757 C 187.600 30.560,187.465 30.421,187.300 30.447 C 186.554 30.565,185.971 30.371,186.159 30.067 C 186.272 29.883,186.148 29.706,185.882 29.673 C 184.137 29.456,182.800 29.058,182.800 28.755 C 182.800 28.560,182.530 28.400,182.200 28.400 C 181.870 28.400,181.600 28.220,181.600 28.000 C 181.600 27.780,181.241 27.600,180.803 27.600 C 179.864 27.600,176.800 26.332,176.800 25.943 C 176.800 25.796,175.900 25.551,174.800 25.400 C 173.700 25.249,172.800 24.962,172.800 24.762 C 172.800 24.563,172.350 24.400,171.800 24.400 C 171.250 24.400,170.800 24.233,170.800 24.029 C 170.800 23.825,169.808 23.534,168.595 23.382 C 167.382 23.230,166.291 22.948,166.171 22.753 C 166.051 22.559,165.423 22.400,164.776 22.400 C 164.129 22.400,163.600 22.235,163.600 22.034 C 163.600 21.833,162.250 21.542,160.600 21.387 C 158.950 21.233,157.600 20.947,157.600 20.753 C 157.600 20.559,156.715 20.400,155.633 20.400 C 154.552 20.400,153.607 20.227,153.533 20.015 C 153.460 19.804,151.195 19.507,148.500 19.355 C 145.805 19.204,143.600 18.927,143.600 18.740 C 143.600 18.553,141.800 18.400,139.600 18.400 C 137.200 18.400,135.600 18.240,135.600 18.000 C 135.600 17.741,130.800 17.600,122.000 17.600 C 113.200 17.600,108.400 17.741,108.400 18.000 " stroke="none" fill="#049cd4" fill-rule="evenodd"></path><path id="path1" d="M45.600 150.742 C 45.600 150.931,44.209 151.190,42.508 151.318 C 40.807 151.447,39.352 151.743,39.275 151.976 C 39.197 152.209,38.698 152.400,38.167 152.400 C 37.635 152.400,37.200 152.560,37.200 152.755 C 37.200 152.951,36.570 153.229,35.800 153.374 C 35.030 153.518,34.400 153.808,34.400 154.018 C 34.400 154.228,34.130 154.400,33.800 154.400 C 33.470 154.400,33.200 154.568,33.200 154.773 C 33.200 154.978,32.816 155.268,32.347 155.417 C 31.201 155.781,27.200 159.755,27.200 160.530 C 27.200 160.869,26.859 161.254,26.442 161.387 C 25.972 161.536,25.585 162.155,25.424 163.014 C 25.281 163.776,24.992 164.400,24.782 164.400 C 24.572 164.400,24.400 164.670,24.400 165.000 C 24.400 165.330,24.237 165.600,24.038 165.600 C 23.838 165.600,23.551 166.500,23.400 167.600 C 23.249 168.700,22.962 169.600,22.762 169.600 C 22.563 169.600,22.400 170.860,22.400 172.400 C 22.400 174.000,22.229 175.200,22.000 175.200 C 21.735 175.200,21.600 205.200,21.600 264.400 C 21.600 323.600,21.735 353.600,22.000 353.600 C 22.231 353.600,22.400 354.867,22.400 356.600 C 22.400 358.250,22.557 359.600,22.748 359.600 C 22.940 359.600,23.219 360.680,23.368 362.000 C 23.518 363.320,23.811 364.400,24.020 364.400 C 24.229 364.400,24.400 364.850,24.400 365.400 C 24.400 365.950,24.560 366.400,24.757 366.400 C 24.953 366.400,25.230 366.866,25.373 367.434 C 25.516 368.003,26.075 368.912,26.616 369.453 C 27.157 369.994,27.600 370.608,27.600 370.818 C 27.600 371.315,30.685 374.400,31.182 374.400 C 31.392 374.400,32.006 374.843,32.547 375.384 C 33.088 375.925,33.997 376.484,34.566 376.627 C 35.134 376.770,35.600 377.047,35.600 377.243 C 35.600 377.440,36.035 377.600,36.567 377.600 C 37.098 377.600,37.594 377.783,37.669 378.006 C 37.743 378.229,39.018 378.525,40.502 378.664 C 41.986 378.802,43.200 379.070,43.200 379.258 C 43.200 379.446,45.360 379.600,48.000 379.600 C 50.640 379.600,52.800 379.446,52.800 379.258 C 52.800 379.070,54.103 378.807,55.695 378.673 C 57.287 378.540,58.652 378.244,58.728 378.015 C 58.804 377.787,59.212 377.600,59.633 377.600 C 60.055 377.600,60.400 377.434,60.400 377.232 C 60.400 377.029,60.940 376.745,61.600 376.600 C 62.260 376.455,62.800 376.171,62.800 375.968 C 62.800 375.766,63.062 375.600,63.381 375.600 C 64.372 375.600,70.402 369.291,70.664 367.980 C 70.794 367.331,71.058 366.800,71.250 366.800 C 71.443 366.800,71.600 366.530,71.600 366.200 C 71.600 365.870,71.763 365.600,71.962 365.600 C 72.162 365.600,72.449 364.700,72.600 363.600 C 72.751 362.500,73.038 361.600,73.238 361.600 C 73.437 361.600,73.600 360.880,73.600 360.000 C 73.600 359.120,73.780 358.400,74.000 358.400 C 74.263 358.400,74.400 349.211,74.400 331.634 L 74.400 304.868 101.267 304.734 C 122.309 304.629,128.170 304.492,128.300 304.100 C 128.396 303.813,129.135 303.600,130.033 303.600 C 130.895 303.600,131.600 303.441,131.600 303.247 C 131.600 303.053,132.950 302.767,134.600 302.613 C 136.250 302.458,137.600 302.167,137.600 301.966 C 137.600 301.765,138.050 301.600,138.600 301.600 C 139.150 301.600,139.600 301.437,139.600 301.238 C 139.600 301.038,140.500 300.751,141.600 300.600 C 142.700 300.449,143.600 300.162,143.600 299.962 C 143.600 299.763,144.050 299.600,144.600 299.600 C 145.150 299.600,145.600 299.422,145.600 299.205 C 145.600 298.987,146.320 298.694,147.200 298.554 C 148.080 298.413,148.800 298.141,148.800 297.949 C 148.800 297.757,149.160 297.600,149.600 297.600 C 150.040 297.600,150.400 297.440,150.400 297.243 C 150.400 297.047,150.884 296.765,151.476 296.617 C 152.068 296.468,152.854 295.999,153.223 295.574 C 153.591 295.149,154.451 294.690,155.134 294.553 C 155.851 294.410,156.477 293.987,156.615 293.552 C 156.746 293.139,157.207 292.800,157.640 292.800 C 158.072 292.800,158.529 292.530,158.655 292.200 C 158.782 291.870,159.145 291.600,159.462 291.600 C 159.779 291.600,160.455 291.150,160.965 290.600 C 161.475 290.050,162.096 289.600,162.346 289.600 C 162.596 289.600,162.800 289.432,162.800 289.227 C 162.800 289.022,163.151 288.743,163.580 288.606 C 164.008 288.470,164.467 288.017,164.600 287.600 C 164.733 287.183,165.183 286.733,165.600 286.600 C 166.017 286.467,166.470 286.008,166.606 285.580 C 166.743 285.151,167.182 284.800,167.584 284.800 C 168.023 284.800,168.410 284.413,168.558 283.827 C 168.692 283.291,169.152 282.742,169.580 282.606 C 170.009 282.470,170.467 282.017,170.600 281.600 C 170.733 281.183,171.183 280.733,171.600 280.600 C 172.017 280.467,172.480 279.979,172.627 279.513 C 172.775 279.048,173.324 278.239,173.848 277.716 C 174.372 277.192,174.800 276.568,174.800 276.329 C 174.800 276.090,175.134 275.603,175.543 275.247 C 175.951 274.891,176.413 274.195,176.570 273.700 C 176.726 273.205,177.022 272.800,177.227 272.800 C 177.432 272.800,177.600 272.530,177.600 272.200 C 177.600 271.870,177.772 271.600,177.982 271.600 C 178.192 271.600,178.482 270.970,178.626 270.200 C 178.771 269.430,179.049 268.800,179.245 268.800 C 179.440 268.800,179.600 268.530,179.600 268.200 C 179.600 267.870,179.772 267.600,179.982 267.600 C 180.192 267.600,180.482 266.970,180.626 266.200 C 180.771 265.430,181.049 264.800,181.245 264.800 C 181.440 264.800,181.600 264.530,181.600 264.200 C 181.600 263.870,181.778 263.600,181.995 263.600 C 182.213 263.600,182.506 262.880,182.646 262.000 C 182.787 261.120,183.059 260.400,183.251 260.400 C 183.443 260.400,183.600 259.950,183.600 259.400 C 183.600 258.850,183.763 258.400,183.962 258.400 C 184.162 258.400,184.449 257.500,184.600 256.400 C 184.751 255.300,185.038 254.400,185.238 254.400 C 185.437 254.400,185.600 253.770,185.600 253.000 C 185.600 252.230,185.765 251.600,185.966 251.600 C 186.167 251.600,186.458 250.250,186.613 248.600 C 186.767 246.950,187.053 245.600,187.247 245.600 C 187.441 245.600,187.600 244.535,187.600 243.233 C 187.600 241.816,187.783 240.806,188.057 240.714 C 188.711 240.496,188.717 215.906,188.062 215.687 C 187.788 215.596,187.600 214.650,187.600 213.367 C 187.600 212.175,187.446 211.200,187.257 211.200 C 187.069 211.200,186.794 209.895,186.646 208.300 C 186.499 206.705,186.203 205.340,185.989 205.267 C 185.775 205.193,185.600 204.518,185.600 203.767 C 185.600 203.015,185.437 202.400,185.238 202.400 C 185.038 202.400,184.751 201.500,184.600 200.400 C 184.449 199.300,184.162 198.400,183.962 198.400 C 183.763 198.400,183.600 197.950,183.600 197.400 C 183.600 196.850,183.422 196.400,183.205 196.400 C 182.987 196.400,182.694 195.680,182.554 194.800 C 182.413 193.920,182.141 193.200,181.949 193.200 C 181.757 193.200,181.600 192.840,181.600 192.400 C 181.600 191.960,181.434 191.600,181.232 191.600 C 181.029 191.600,180.745 191.060,180.600 190.400 C 180.455 189.740,180.171 189.200,179.968 189.200 C 179.766 189.200,179.600 188.859,179.600 188.443 C 179.600 188.026,179.330 187.582,179.000 187.455 C 178.670 187.329,178.400 186.859,178.400 186.413 C 178.400 185.966,178.220 185.600,178.000 185.600 C 177.780 185.600,177.600 185.330,177.600 185.000 C 177.600 184.670,177.432 184.400,177.227 184.400 C 177.022 184.400,176.726 183.995,176.570 183.500 C 176.413 183.005,175.977 182.330,175.600 182.000 C 175.223 181.670,174.789 181.004,174.637 180.520 C 174.484 180.037,174.008 179.530,173.580 179.394 C 173.151 179.257,172.800 178.877,172.800 178.548 C 172.800 177.766,162.234 167.200,161.452 167.200 C 161.123 167.200,160.743 166.849,160.606 166.420 C 160.470 165.992,159.963 165.516,159.480 165.363 C 158.996 165.211,158.330 164.777,158.000 164.400 C 157.670 164.023,156.995 163.587,156.500 163.430 C 156.005 163.274,155.600 162.978,155.600 162.773 C 155.600 162.568,155.330 162.400,155.000 162.400 C 154.670 162.400,154.400 162.220,154.400 162.000 C 154.400 161.780,154.034 161.600,153.587 161.600 C 153.141 161.600,152.671 161.330,152.545 161.000 C 152.418 160.670,151.974 160.400,151.557 160.400 C 151.141 160.400,150.800 160.234,150.800 160.032 C 150.800 159.829,150.260 159.545,149.600 159.400 C 148.940 159.255,148.400 158.971,148.400 158.768 C 148.400 158.566,148.040 158.400,147.600 158.400 C 147.160 158.400,146.800 158.243,146.800 158.051 C 146.800 157.859,146.080 157.587,145.200 157.446 C 144.320 157.306,143.600 157.013,143.600 156.795 C 143.600 156.578,143.150 156.400,142.600 156.400 C 142.050 156.400,141.600 156.222,141.600 156.005 C 141.600 155.787,140.880 155.494,140.000 155.354 C 139.120 155.213,138.400 154.941,138.400 154.749 C 138.400 154.557,137.950 154.400,137.400 154.400 C 136.850 154.400,136.400 154.238,136.400 154.041 C 136.400 153.843,135.140 153.555,133.600 153.400 C 132.060 153.245,130.800 152.957,130.800 152.759 C 130.800 152.562,130.095 152.400,129.233 152.400 C 128.372 152.400,127.607 152.227,127.533 152.016 C 127.460 151.806,124.745 151.508,121.500 151.356 C 118.255 151.203,115.600 150.926,115.600 150.739 C 115.600 150.553,99.850 150.400,80.600 150.400 C 61.350 150.400,45.600 150.554,45.600 150.742 M271.200 150.738 C 271.200 150.924,268.545 151.196,265.300 151.343 C 262.029 151.492,259.341 151.787,259.267 152.005 C 259.193 152.222,258.338 152.400,257.367 152.400 C 256.395 152.400,255.600 152.559,255.600 152.753 C 255.600 152.947,254.250 153.233,252.600 153.387 C 250.950 153.542,249.600 153.833,249.600 154.034 C 249.600 154.235,249.150 154.400,248.600 154.400 C 248.050 154.400,247.600 154.563,247.600 154.762 C 247.600 154.962,246.700 155.249,245.600 155.400 C 244.500 155.551,243.600 155.838,243.600 156.038 C 243.600 156.237,243.150 156.400,242.600 156.400 C 242.050 156.400,241.600 156.578,241.600 156.795 C 241.600 157.013,240.880 157.306,240.000 157.446 C 239.120 157.587,238.400 157.859,238.400 158.051 C 238.400 158.243,238.130 158.400,237.800 158.400 C 237.470 158.400,237.200 158.560,237.200 158.755 C 237.200 158.951,236.570 159.229,235.800 159.374 C 235.030 159.518,234.400 159.808,234.400 160.018 C 234.400 160.228,234.130 160.400,233.800 160.400 C 233.470 160.400,233.200 160.580,233.200 160.800 C 233.200 161.020,232.834 161.200,232.387 161.200 C 231.941 161.200,231.471 161.470,231.345 161.800 C 231.218 162.130,230.774 162.400,230.357 162.400 C 229.941 162.400,229.600 162.560,229.600 162.757 C 229.600 162.953,229.150 163.226,228.600 163.364 C 228.050 163.502,227.600 163.792,227.600 164.008 C 227.600 164.223,227.330 164.400,227.000 164.400 C 226.670 164.400,226.400 164.568,226.400 164.773 C 226.400 164.978,226.006 165.271,225.525 165.424 C 225.044 165.576,224.078 166.308,223.378 167.051 C 222.678 167.793,221.902 168.400,221.653 168.400 C 221.404 168.400,221.200 168.568,221.200 168.773 C 221.200 168.978,220.849 169.257,220.420 169.394 C 219.992 169.530,219.533 169.983,219.400 170.400 C 219.267 170.817,218.817 171.267,218.400 171.400 C 217.983 171.533,217.533 171.983,217.400 172.400 C 217.267 172.817,216.817 173.267,216.400 173.400 C 215.983 173.533,215.533 173.983,215.400 174.400 C 215.267 174.817,214.808 175.270,214.380 175.406 C 213.951 175.543,213.600 175.937,213.600 176.284 C 213.600 176.630,213.060 177.429,212.400 178.060 C 211.740 178.691,211.200 179.409,211.200 179.657 C 211.200 179.904,210.866 180.397,210.457 180.753 C 210.049 181.109,209.587 181.805,209.430 182.300 C 209.274 182.795,208.978 183.200,208.773 183.200 C 208.568 183.200,208.400 183.470,208.400 183.800 C 208.400 184.130,208.228 184.400,208.018 184.400 C 207.808 184.400,207.518 185.030,207.374 185.800 C 207.229 186.570,206.951 187.200,206.755 187.200 C 206.560 187.200,206.400 187.470,206.400 187.800 C 206.400 188.130,206.228 188.400,206.018 188.400 C 205.808 188.400,205.518 189.030,205.374 189.800 C 205.229 190.570,204.951 191.200,204.755 191.200 C 204.560 191.200,204.400 191.470,204.400 191.800 C 204.400 192.130,204.237 192.400,204.038 192.400 C 203.838 192.400,203.551 193.300,203.400 194.400 C 203.249 195.500,202.962 196.400,202.762 196.400 C 202.563 196.400,202.400 196.850,202.400 197.400 C 202.400 197.950,202.241 198.400,202.047 198.400 C 201.852 198.400,201.568 199.570,201.415 201.000 C 201.262 202.430,200.971 203.600,200.768 203.600 C 200.566 203.600,200.400 204.485,200.400 205.567 C 200.400 206.784,200.210 207.597,199.900 207.700 C 199.172 207.942,199.172 233.257,199.900 233.500 C 200.187 233.595,200.400 234.336,200.400 235.233 C 200.400 236.095,200.562 236.800,200.759 236.800 C 200.957 236.800,201.245 238.060,201.400 239.600 C 201.555 241.140,201.843 242.400,202.041 242.400 C 202.238 242.400,202.400 242.670,202.400 243.000 C 202.400 243.330,202.557 243.600,202.749 243.600 C 202.941 243.600,203.213 244.320,203.354 245.200 C 203.494 246.080,203.787 246.800,204.005 246.800 C 204.222 246.800,204.400 247.160,204.400 247.600 C 204.400 248.040,204.566 248.400,204.768 248.400 C 204.971 248.400,205.255 248.940,205.400 249.600 C 205.545 250.260,205.829 250.800,206.032 250.800 C 206.234 250.800,206.400 251.141,206.400 251.557 C 206.400 251.974,206.670 252.418,207.000 252.545 C 207.330 252.671,207.600 253.128,207.600 253.560 C 207.600 253.995,207.958 254.460,208.400 254.600 C 208.840 254.740,209.200 255.124,209.200 255.454 C 209.200 256.236,217.764 264.800,218.546 264.800 C 218.876 264.800,219.260 265.160,219.400 265.600 C 219.540 266.042,220.005 266.400,220.440 266.400 C 220.872 266.400,221.329 266.670,221.455 267.000 C 221.582 267.330,222.007 267.600,222.400 267.600 C 222.793 267.600,223.218 267.870,223.345 268.200 C 223.471 268.530,223.941 268.800,224.387 268.800 C 224.834 268.800,225.200 268.980,225.200 269.200 C 225.200 269.420,225.470 269.600,225.800 269.600 C 226.130 269.600,226.400 269.777,226.400 269.992 C 226.400 270.208,226.850 270.498,227.400 270.636 C 227.950 270.774,228.400 271.047,228.400 271.243 C 228.400 271.440,228.670 271.600,229.000 271.600 C 229.330 271.600,229.600 271.760,229.600 271.955 C 229.600 272.151,230.230 272.429,231.000 272.574 C 231.770 272.718,232.400 273.008,232.400 273.218 C 232.400 273.428,232.850 273.600,233.400 273.600 C 233.950 273.600,234.400 273.772,234.400 273.982 C 234.400 274.192,235.030 274.482,235.800 274.626 C 236.570 274.771,237.200 275.049,237.200 275.245 C 237.200 275.440,237.650 275.600,238.200 275.600 C 238.750 275.600,239.200 275.757,239.200 275.949 C 239.200 276.141,239.920 276.413,240.800 276.554 C 241.680 276.694,242.400 276.987,242.400 277.205 C 242.400 277.422,242.850 277.600,243.400 277.600 C 243.950 277.600,244.400 277.763,244.400 277.962 C 244.400 278.162,245.300 278.449,246.400 278.600 C 247.500 278.751,248.400 279.038,248.400 279.238 C 248.400 279.437,248.850 279.600,249.400 279.600 C 249.950 279.600,250.400 279.763,250.400 279.962 C 250.400 280.162,251.300 280.449,252.400 280.600 C 253.500 280.751,254.400 281.038,254.400 281.238 C 254.400 281.437,254.850 281.600,255.400 281.600 C 255.950 281.600,256.400 281.771,256.400 281.980 C 256.400 282.189,257.480 282.482,258.800 282.632 C 260.120 282.781,261.200 283.060,261.200 283.252 C 261.200 283.443,261.650 283.600,262.200 283.600 C 262.750 283.600,263.200 283.763,263.200 283.962 C 263.200 284.162,264.100 284.449,265.200 284.600 C 266.300 284.751,267.200 285.038,267.200 285.238 C 267.200 285.437,267.650 285.600,268.200 285.600 C 268.750 285.600,269.200 285.763,269.200 285.962 C 269.200 286.162,270.100 286.449,271.200 286.600 C 272.300 286.751,273.200 287.038,273.200 287.238 C 273.200 287.437,273.650 287.600,274.200 287.600 C 274.750 287.600,275.200 287.763,275.200 287.962 C 275.200 288.162,276.100 288.449,277.200 288.600 C 278.300 288.751,279.200 289.038,279.200 289.238 C 279.200 289.437,279.470 289.600,279.800 289.600 C 280.130 289.600,280.400 289.757,280.400 289.949 C 280.400 290.141,281.120 290.413,282.000 290.554 C 282.880 290.694,283.600 290.987,283.600 291.205 C 283.600 291.422,283.960 291.600,284.400 291.600 C 284.840 291.600,285.200 291.760,285.200 291.957 C 285.200 292.153,285.684 292.435,286.276 292.583 C 286.868 292.732,287.633 293.176,287.976 293.570 C 288.319 293.963,289.005 294.413,289.500 294.570 C 289.995 294.726,290.400 295.022,290.400 295.227 C 290.400 295.432,290.670 295.600,291.000 295.600 C 291.330 295.600,291.600 295.768,291.600 295.973 C 291.600 296.178,291.951 296.457,292.380 296.594 C 292.808 296.730,293.267 297.183,293.400 297.600 C 293.533 298.017,293.992 298.470,294.420 298.606 C 294.849 298.743,295.200 299.207,295.200 299.640 C 295.200 300.072,295.470 300.529,295.800 300.655 C 296.130 300.782,296.400 301.211,296.400 301.609 C 296.400 302.008,296.625 302.408,296.900 302.500 C 297.271 302.624,297.400 304.249,297.400 308.800 C 297.400 313.351,297.271 314.976,296.900 315.100 C 296.625 315.192,296.400 315.702,296.400 316.233 C 296.400 316.765,296.240 317.200,296.043 317.200 C 295.847 317.200,295.574 317.650,295.436 318.200 C 295.298 318.750,295.008 319.200,294.792 319.200 C 294.577 319.200,294.400 319.394,294.400 319.631 C 294.400 320.267,291.465 323.062,290.463 323.380 C 289.988 323.531,289.600 323.822,289.600 324.027 C 289.600 324.232,289.407 324.400,289.171 324.400 C 288.936 324.400,288.473 324.670,288.143 325.000 C 287.813 325.330,287.106 325.600,286.571 325.600 C 286.037 325.600,285.600 325.780,285.600 326.000 C 285.600 326.220,285.330 326.400,285.000 326.400 C 284.670 326.400,284.400 326.565,284.400 326.766 C 284.400 326.967,283.050 327.258,281.400 327.413 C 279.750 327.567,278.400 327.853,278.400 328.047 C 278.400 328.241,275.340 328.400,271.600 328.400 C 267.860 328.400,264.800 328.243,264.800 328.052 C 264.800 327.860,263.000 327.575,260.800 327.419 C 258.600 327.263,256.800 326.970,256.800 326.768 C 256.800 326.566,256.080 326.400,255.200 326.400 C 254.320 326.400,253.600 326.229,253.600 326.020 C 253.600 325.811,252.520 325.518,251.200 325.368 C 249.880 325.219,248.800 324.940,248.800 324.748 C 248.800 324.557,248.350 324.400,247.800 324.400 C 247.250 324.400,246.800 324.237,246.800 324.038 C 246.800 323.838,245.900 323.551,244.800 323.400 C 243.700 323.249,242.800 322.962,242.800 322.762 C 242.800 322.563,242.350 322.400,241.800 322.400 C 241.250 322.400,240.800 322.243,240.800 322.051 C 240.800 321.859,240.080 321.587,239.200 321.446 C 238.320 321.306,237.600 321.013,237.600 320.795 C 237.600 320.578,237.150 320.400,236.600 320.400 C 236.050 320.400,235.600 320.243,235.600 320.051 C 235.600 319.859,234.880 319.587,234.000 319.446 C 233.120 319.306,232.400 319.013,232.400 318.795 C 232.400 318.578,231.950 318.400,231.400 318.400 C 230.850 318.400,230.400 318.229,230.400 318.020 C 230.400 317.811,229.320 317.518,228.000 317.368 C 226.680 317.219,225.600 316.940,225.600 316.748 C 225.600 316.557,224.700 316.400,223.600 316.400 C 222.500 316.400,221.600 316.220,221.600 316.000 C 221.600 315.774,220.467 315.600,219.000 315.600 C 217.533 315.600,216.400 315.774,216.400 316.000 C 216.400 316.220,215.500 316.400,214.400 316.400 C 213.300 316.400,212.400 316.557,212.400 316.749 C 212.400 316.941,211.680 317.213,210.800 317.354 C 209.920 317.494,209.200 317.787,209.200 318.005 C 209.200 318.222,208.840 318.400,208.400 318.400 C 207.960 318.400,207.600 318.560,207.600 318.757 C 207.600 318.953,207.150 319.226,206.600 319.364 C 206.050 319.502,205.600 319.792,205.600 320.008 C 205.600 320.223,205.406 320.400,205.169 320.400 C 204.539 320.400,201.739 323.330,201.427 324.316 C 201.279 324.780,200.827 325.264,200.421 325.393 C 199.974 325.535,199.582 326.172,199.424 327.014 C 199.281 327.776,198.992 328.400,198.782 328.400 C 198.572 328.400,198.400 328.670,198.400 329.000 C 198.400 329.330,198.231 329.600,198.025 329.600 C 197.818 329.600,197.528 330.410,197.379 331.400 C 197.231 332.390,196.950 333.200,196.755 333.200 C 196.560 333.200,196.400 333.740,196.400 334.400 C 196.400 335.060,196.220 335.600,196.000 335.600 C 195.750 335.600,195.600 338.000,195.600 342.000 C 195.600 346.000,195.750 348.400,196.000 348.400 C 196.220 348.400,196.400 348.850,196.400 349.400 C 196.400 349.950,196.556 350.400,196.748 350.400 C 196.939 350.400,197.200 351.046,197.328 351.836 C 197.457 352.626,197.904 353.571,198.324 353.936 C 198.743 354.301,199.211 354.996,199.363 355.480 C 199.516 355.963,199.992 356.470,200.420 356.606 C 200.849 356.743,201.200 357.137,201.200 357.484 C 201.200 358.249,203.191 360.216,204.332 360.578 C 204.787 360.723,205.267 361.183,205.400 361.600 C 205.533 362.017,206.021 362.480,206.487 362.627 C 206.952 362.775,207.761 363.324,208.284 363.848 C 208.808 364.372,209.498 364.800,209.818 364.800 C 210.138 364.800,210.400 364.980,210.400 365.200 C 210.400 365.420,210.670 365.600,211.000 365.600 C 211.330 365.600,211.600 365.777,211.600 365.992 C 211.600 366.208,212.050 366.498,212.600 366.636 C 213.150 366.774,213.600 367.047,213.600 367.243 C 213.600 367.440,213.960 367.600,214.400 367.600 C 214.840 367.600,215.200 367.778,215.200 367.995 C 215.200 368.213,215.920 368.506,216.800 368.646 C 217.680 368.787,218.400 369.059,218.400 369.251 C 218.400 369.443,218.670 369.600,219.000 369.600 C 219.330 369.600,219.600 369.769,219.600 369.975 C 219.600 370.182,220.410 370.472,221.400 370.621 C 222.390 370.769,223.200 371.050,223.200 371.245 C 223.200 371.440,223.635 371.600,224.167 371.600 C 224.698 371.600,225.199 371.798,225.280 372.039 C 225.360 372.281,226.275 372.574,227.313 372.691 C 228.351 372.808,229.200 373.061,229.200 373.252 C 229.200 373.443,229.650 373.600,230.200 373.600 C 230.750 373.600,231.200 373.759,231.200 373.954 C 231.200 374.149,232.190 374.432,233.400 374.583 C 234.610 374.734,235.600 375.025,235.600 375.229 C 235.600 375.433,236.410 375.600,237.400 375.600 C 238.390 375.600,239.200 375.761,239.200 375.958 C 239.200 376.155,240.640 376.444,242.400 376.600 C 244.160 376.756,245.600 377.045,245.600 377.242 C 245.600 377.439,246.665 377.600,247.967 377.600 C 249.504 377.600,250.392 377.775,250.500 378.100 C 250.630 378.490,254.689 378.600,269.000 378.600 C 283.311 378.600,287.370 378.490,287.500 378.100 C 287.603 377.790,288.416 377.600,289.633 377.600 C 290.715 377.600,291.600 377.441,291.600 377.247 C 291.600 377.053,292.950 376.767,294.600 376.613 C 296.250 376.458,297.600 376.167,297.600 375.966 C 297.600 375.765,298.230 375.600,299.000 375.600 C 299.770 375.600,300.400 375.441,300.400 375.246 C 300.400 375.051,301.390 374.768,302.600 374.617 C 303.810 374.466,304.800 374.175,304.800 373.971 C 304.800 373.767,305.250 373.600,305.800 373.600 C 306.350 373.600,306.800 373.431,306.800 373.225 C 306.800 373.018,307.610 372.728,308.600 372.579 C 309.590 372.431,310.400 372.150,310.400 371.955 C 310.400 371.760,310.670 371.600,311.000 371.600 C 311.330 371.600,311.600 371.422,311.600 371.205 C 311.600 370.987,312.320 370.694,313.200 370.554 C 314.080 370.413,314.800 370.141,314.800 369.949 C 314.800 369.757,315.160 369.600,315.600 369.600 C 316.040 369.600,316.400 369.440,316.400 369.243 C 316.400 369.047,316.850 368.774,317.400 368.636 C 317.950 368.498,318.400 368.208,318.400 367.992 C 318.400 367.777,318.670 367.600,319.000 367.600 C 319.330 367.600,319.600 367.440,319.600 367.243 C 319.600 367.047,320.050 366.774,320.600 366.636 C 321.150 366.498,321.600 366.208,321.600 365.992 C 321.600 365.777,321.870 365.600,322.200 365.600 C 322.530 365.600,322.800 365.420,322.800 365.200 C 322.800 364.980,323.135 364.800,323.544 364.800 C 323.953 364.800,324.626 364.350,325.039 363.800 C 325.452 363.250,326.016 362.800,326.291 362.800 C 326.567 362.800,327.309 362.260,327.940 361.600 C 328.571 360.940,329.370 360.400,329.716 360.400 C 330.063 360.400,330.457 360.049,330.594 359.620 C 330.730 359.192,331.183 358.733,331.600 358.600 C 332.017 358.467,332.467 358.017,332.600 357.600 C 332.733 357.183,333.183 356.733,333.600 356.600 C 334.017 356.467,334.467 356.017,334.600 355.600 C 334.733 355.183,335.183 354.733,335.600 354.600 C 336.017 354.467,336.480 353.979,336.627 353.513 C 336.775 353.048,337.324 352.239,337.848 351.716 C 338.372 351.192,338.800 350.545,338.800 350.277 C 338.800 350.009,339.250 349.452,339.800 349.039 C 340.350 348.626,340.800 347.965,340.800 347.571 C 340.800 347.177,341.141 346.746,341.558 346.613 C 342.028 346.464,342.415 345.845,342.576 344.986 C 342.719 344.224,343.008 343.600,343.218 343.600 C 343.428 343.600,343.600 343.330,343.600 343.000 C 343.600 342.670,343.760 342.400,343.955 342.400 C 344.151 342.400,344.429 341.770,344.574 341.000 C 344.718 340.230,345.008 339.600,345.218 339.600 C 345.428 339.600,345.600 339.330,345.600 339.000 C 345.600 338.670,345.769 338.400,345.975 338.400 C 346.182 338.400,346.472 337.590,346.621 336.600 C 346.769 335.610,347.050 334.800,347.245 334.800 C 347.440 334.800,347.600 334.350,347.600 333.800 C 347.600 333.250,347.763 332.800,347.962 332.800 C 348.162 332.800,348.449 331.900,348.600 330.800 C 348.751 329.700,349.038 328.800,349.238 328.800 C 349.437 328.800,349.600 328.260,349.600 327.600 C 349.600 326.940,349.763 326.400,349.963 326.400 C 350.162 326.400,350.454 324.690,350.610 322.600 C 350.767 320.510,351.054 318.800,351.248 318.800 C 351.441 318.800,351.600 317.360,351.600 315.600 C 351.600 313.733,351.767 312.400,352.000 312.400 C 352.250 312.400,352.400 310.000,352.400 306.000 C 352.400 302.000,352.250 299.600,352.000 299.600 C 351.767 299.600,351.600 298.267,351.600 296.400 C 351.600 294.640,351.446 293.200,351.258 293.200 C 351.069 293.200,350.792 291.715,350.641 289.900 C 350.491 288.085,350.195 286.540,349.984 286.467 C 349.773 286.393,349.600 285.718,349.600 284.967 C 349.600 284.215,349.437 283.600,349.238 283.600 C 349.038 283.600,348.751 282.700,348.600 281.600 C 348.449 280.500,348.162 279.600,347.962 279.600 C 347.763 279.600,347.600 279.330,347.600 279.000 C 347.600 278.670,347.443 278.400,347.251 278.400 C 347.059 278.400,346.787 277.680,346.646 276.800 C 346.506 275.920,346.213 275.200,345.995 275.200 C 345.778 275.200,345.600 274.840,345.600 274.400 C 345.600 273.960,345.440 273.600,345.243 273.600 C 345.047 273.600,344.774 273.150,344.636 272.600 C 344.498 272.050,344.208 271.600,343.992 271.600 C 343.777 271.600,343.600 271.330,343.600 271.000 C 343.600 270.670,343.420 270.400,343.200 270.400 C 342.980 270.400,342.800 270.138,342.800 269.818 C 342.800 269.498,342.372 268.808,341.848 268.284 C 341.324 267.761,340.775 266.952,340.627 266.487 C 340.480 266.021,340.017 265.533,339.600 265.400 C 339.183 265.267,338.722 264.784,338.577 264.326 C 338.218 263.196,334.238 259.200,333.470 259.200 C 333.131 259.200,332.743 258.849,332.606 258.420 C 332.470 257.992,332.008 257.530,331.580 257.394 C 331.151 257.257,330.800 256.978,330.800 256.773 C 330.800 256.568,330.596 256.400,330.346 256.400 C 330.096 256.400,329.475 255.950,328.965 255.400 C 328.455 254.850,327.779 254.400,327.462 254.400 C 327.145 254.400,326.782 254.130,326.655 253.800 C 326.529 253.470,326.072 253.200,325.640 253.200 C 325.207 253.200,324.746 252.859,324.613 252.442 C 324.464 251.972,323.845 251.585,322.986 251.424 C 322.224 251.281,321.600 250.992,321.600 250.782 C 321.600 250.572,321.330 250.400,321.000 250.400 C 320.670 250.400,320.400 250.240,320.400 250.045 C 320.400 249.849,319.770 249.571,319.000 249.426 C 318.230 249.282,317.600 248.992,317.600 248.782 C 317.600 248.572,317.330 248.400,317.000 248.400 C 316.670 248.400,316.400 248.240,316.400 248.045 C 316.400 247.849,315.770 247.571,315.000 247.426 C 314.230 247.282,313.600 246.992,313.600 246.782 C 313.600 246.572,313.330 246.400,313.000 246.400 C 312.670 246.400,312.400 246.240,312.400 246.045 C 312.400 245.850,311.590 245.569,310.600 245.421 C 309.610 245.272,308.800 244.982,308.800 244.775 C 308.800 244.569,308.350 244.400,307.800 244.400 C 307.250 244.400,306.800 244.222,306.800 244.005 C 306.800 243.787,306.080 243.494,305.200 243.354 C 304.320 243.213,303.600 242.941,303.600 242.749 C 303.600 242.557,303.150 242.400,302.600 242.400 C 302.050 242.400,301.600 242.237,301.600 242.038 C 301.600 241.838,300.700 241.551,299.600 241.400 C 298.500 241.249,297.600 240.962,297.600 240.762 C 297.600 240.563,297.150 240.400,296.600 240.400 C 296.050 240.400,295.600 240.237,295.600 240.038 C 295.600 239.838,294.700 239.551,293.600 239.400 C 292.500 239.249,291.600 238.962,291.600 238.762 C 291.600 238.563,291.150 238.400,290.600 238.400 C 290.050 238.400,289.600 238.243,289.600 238.052 C 289.600 237.860,288.520 237.581,287.200 237.432 C 285.880 237.282,284.800 236.989,284.800 236.780 C 284.800 236.571,284.350 236.400,283.800 236.400 C 283.250 236.400,282.800 236.237,282.800 236.038 C 282.800 235.838,281.900 235.551,280.800 235.400 C 279.700 235.249,278.800 234.962,278.800 234.762 C 278.800 234.563,278.350 234.400,277.800 234.400 C 277.250 234.400,276.800 234.237,276.800 234.038 C 276.800 233.838,275.900 233.551,274.800 233.400 C 273.700 233.249,272.800 232.962,272.800 232.762 C 272.800 232.563,272.350 232.400,271.800 232.400 C 271.250 232.400,270.800 232.243,270.800 232.051 C 270.800 231.859,270.080 231.587,269.200 231.446 C 268.320 231.306,267.600 231.013,267.600 230.795 C 267.600 230.578,267.150 230.400,266.600 230.400 C 266.050 230.400,265.600 230.228,265.600 230.018 C 265.600 229.808,264.970 229.518,264.200 229.374 C 263.430 229.229,262.800 228.951,262.800 228.755 C 262.800 228.560,262.530 228.400,262.200 228.400 C 261.870 228.400,261.600 228.228,261.600 228.018 C 261.600 227.808,260.976 227.519,260.214 227.376 C 259.372 227.218,258.735 226.826,258.593 226.379 C 258.464 225.973,258.017 225.533,257.600 225.400 C 257.183 225.267,256.733 224.817,256.600 224.400 C 256.467 223.983,256.027 223.536,255.621 223.407 C 255.174 223.265,254.782 222.628,254.624 221.786 C 254.481 221.024,254.192 220.400,253.982 220.400 C 253.772 220.400,253.600 219.695,253.600 218.833 C 253.600 217.971,253.375 217.162,253.100 217.033 C 252.700 216.847,252.700 216.753,253.100 216.567 C 253.401 216.426,253.600 215.549,253.600 214.367 C 253.600 213.285,253.760 212.400,253.955 212.400 C 254.150 212.400,254.429 211.599,254.576 210.620 C 254.766 209.352,255.067 208.769,255.621 208.593 C 256.050 208.457,256.400 208.070,256.400 207.733 C 256.400 206.937,258.937 204.400,259.733 204.400 C 260.070 204.400,260.454 204.059,260.587 203.642 C 260.736 203.172,261.355 202.785,262.214 202.624 C 262.976 202.481,263.600 202.192,263.600 201.982 C 263.600 201.772,263.855 201.600,264.167 201.600 C 264.478 201.600,264.794 201.417,264.869 201.194 C 264.943 200.971,266.218 200.675,267.702 200.536 C 269.186 200.398,270.400 200.130,270.400 199.942 C 270.400 199.754,273.100 199.600,276.400 199.600 C 279.700 199.600,282.400 199.753,282.400 199.941 C 282.400 200.128,283.973 200.392,285.896 200.528 C 287.818 200.664,289.453 200.960,289.529 201.187 C 289.605 201.414,290.282 201.600,291.033 201.600 C 291.785 201.600,292.400 201.763,292.400 201.962 C 292.400 202.162,293.300 202.449,294.400 202.600 C 295.500 202.751,296.400 203.038,296.400 203.238 C 296.400 203.437,296.850 203.600,297.400 203.600 C 297.950 203.600,298.400 203.763,298.400 203.962 C 298.400 204.162,299.300 204.449,300.400 204.600 C 301.500 204.751,302.400 205.038,302.400 205.238 C 302.400 205.437,302.850 205.600,303.400 205.600 C 303.950 205.600,304.400 205.765,304.400 205.966 C 304.400 206.167,305.750 206.458,307.400 206.613 C 309.050 206.767,310.400 207.053,310.400 207.247 C 310.400 207.441,313.100 207.600,316.400 207.600 C 319.700 207.600,322.400 207.441,322.400 207.246 C 322.400 207.051,323.390 206.768,324.600 206.617 C 325.810 206.466,326.800 206.175,326.800 205.971 C 326.800 205.767,327.160 205.600,327.600 205.600 C 328.040 205.600,328.400 205.440,328.400 205.243 C 328.400 205.047,328.850 204.774,329.400 204.636 C 329.950 204.498,330.400 204.208,330.400 203.992 C 330.400 203.777,330.589 203.600,330.819 203.600 C 331.480 203.600,334.800 200.156,334.800 199.471 C 334.800 199.132,335.141 198.746,335.558 198.613 C 336.028 198.464,336.415 197.845,336.576 196.986 C 336.719 196.224,337.008 195.600,337.218 195.600 C 337.428 195.600,337.600 195.345,337.600 195.033 C 337.600 194.722,337.783 194.406,338.006 194.331 C 338.229 194.257,338.525 192.982,338.664 191.498 C 338.802 190.014,339.070 188.800,339.258 188.800 C 339.446 188.800,339.600 186.640,339.600 184.000 C 339.600 181.360,339.443 179.200,339.252 179.200 C 339.060 179.200,338.781 178.120,338.632 176.800 C 338.482 175.480,338.189 174.400,337.980 174.400 C 337.771 174.400,337.600 174.130,337.600 173.800 C 337.600 173.470,337.440 173.200,337.245 173.200 C 337.049 173.200,336.779 172.613,336.644 171.895 C 336.509 171.177,335.949 170.252,335.400 169.839 C 334.850 169.426,334.400 168.765,334.400 168.371 C 334.400 167.977,334.049 167.543,333.620 167.406 C 333.192 167.270,332.733 166.817,332.600 166.400 C 332.467 165.983,332.017 165.533,331.600 165.400 C 331.183 165.267,330.730 164.808,330.594 164.380 C 330.457 163.951,330.023 163.600,329.629 163.600 C 329.235 163.600,328.582 163.161,328.179 162.624 C 327.776 162.087,327.031 161.544,326.523 161.416 C 326.015 161.289,325.600 161.008,325.600 160.792 C 325.600 160.577,325.330 160.400,325.000 160.400 C 324.670 160.400,324.400 160.240,324.400 160.045 C 324.400 159.849,323.770 159.571,323.000 159.426 C 322.230 159.282,321.600 158.992,321.600 158.782 C 321.600 158.572,321.330 158.400,321.000 158.400 C 320.670 158.400,320.400 158.231,320.400 158.025 C 320.400 157.818,319.590 157.528,318.600 157.379 C 317.610 157.231,316.800 156.950,316.800 156.755 C 316.800 156.560,316.530 156.400,316.200 156.400 C 315.870 156.400,315.600 156.237,315.600 156.038 C 315.600 155.838,314.700 155.551,313.600 155.400 C 312.500 155.249,311.600 154.962,311.600 154.762 C 311.600 154.563,310.985 154.400,310.233 154.400 C 309.482 154.400,308.807 154.225,308.733 154.011 C 308.660 153.797,307.295 153.501,305.700 153.354 C 304.105 153.206,302.800 152.931,302.800 152.743 C 302.800 152.554,301.915 152.400,300.833 152.400 C 299.752 152.400,298.804 152.213,298.728 151.985 C 298.645 151.734,295.880 151.473,291.695 151.323 C 287.903 151.187,284.800 150.923,284.800 150.738 C 284.800 150.552,281.740 150.400,278.000 150.400 C 274.260 150.400,271.200 150.552,271.200 150.738 M107.200 197.941 C 107.200 198.129,108.595 198.400,110.300 198.544 C 112.005 198.688,113.460 198.985,113.533 199.203 C 113.607 199.421,114.102 199.600,114.633 199.600 C 115.165 199.600,115.600 199.769,115.600 199.975 C 115.600 200.182,116.410 200.472,117.400 200.621 C 118.390 200.769,119.200 201.050,119.200 201.245 C 119.200 201.440,119.470 201.600,119.800 201.600 C 120.130 201.600,120.400 201.768,120.400 201.973 C 120.400 202.178,120.805 202.474,121.300 202.630 C 121.795 202.787,122.470 203.223,122.800 203.600 C 123.130 203.977,123.796 204.411,124.280 204.563 C 124.763 204.716,125.267 205.183,125.400 205.600 C 125.533 206.017,125.983 206.467,126.400 206.600 C 126.817 206.733,127.270 207.192,127.406 207.620 C 127.543 208.049,127.822 208.400,128.027 208.400 C 128.232 208.400,128.400 208.670,128.400 209.000 C 128.400 209.330,128.568 209.600,128.773 209.600 C 128.978 209.600,129.274 210.005,129.430 210.500 C 129.587 210.995,130.057 211.699,130.476 212.064 C 130.896 212.429,131.343 213.374,131.472 214.164 C 131.600 214.954,131.861 215.600,132.052 215.600 C 132.244 215.600,132.400 215.870,132.400 216.200 C 132.400 216.530,132.565 216.800,132.766 216.800 C 132.967 216.800,133.258 218.150,133.413 219.800 C 133.567 221.450,133.853 222.800,134.047 222.800 C 134.241 222.800,134.400 224.780,134.400 227.200 C 134.400 229.620,134.246 231.600,134.057 231.600 C 133.869 231.600,133.594 232.905,133.446 234.500 C 133.299 236.095,133.003 237.460,132.789 237.533 C 132.575 237.607,132.400 238.012,132.400 238.433 C 132.400 238.855,132.234 239.200,132.032 239.200 C 131.829 239.200,131.545 239.740,131.400 240.400 C 131.255 241.060,130.971 241.600,130.768 241.600 C 130.566 241.600,130.400 241.960,130.400 242.400 C 130.400 242.840,130.240 243.200,130.043 243.200 C 129.847 243.200,129.577 243.638,129.442 244.173 C 129.308 244.709,128.839 245.261,128.399 245.400 C 127.960 245.540,127.600 245.931,127.600 246.270 C 127.600 247.045,123.599 251.019,122.453 251.383 C 121.984 251.532,121.600 251.822,121.600 252.027 C 121.600 252.232,121.330 252.400,121.000 252.400 C 120.670 252.400,120.400 252.577,120.400 252.792 C 120.400 253.008,119.950 253.298,119.400 253.436 C 118.850 253.574,118.400 253.847,118.400 254.043 C 118.400 254.240,118.130 254.400,117.800 254.400 C 117.470 254.400,117.200 254.569,117.200 254.775 C 117.200 254.982,116.390 255.272,115.400 255.421 C 114.410 255.569,113.600 255.850,113.600 256.045 C 113.600 256.240,113.165 256.400,112.633 256.400 C 112.102 256.400,111.603 256.592,111.524 256.827 C 111.444 257.067,109.687 257.354,107.491 257.485 C 105.351 257.613,103.600 257.871,103.600 258.059 C 103.600 258.246,97.030 258.400,89.000 258.400 L 74.400 258.400 74.400 228.000 L 74.400 197.600 90.800 197.600 C 99.820 197.600,107.200 197.754,107.200 197.941 " stroke="none" fill="#040404" fill-rule="evenodd"></path><path id="path2" d="" stroke="none" fill="#04a0a4" fill-rule="evenodd"></path><path id="path3" d="" stroke="none" fill="#045438" fill-rule="evenodd"></path><path id="path4" d="" stroke="none" fill="#04043c" fill-rule="evenodd"></path></g></svg>